<?xml version="1.0" encoding="utf-8"?>
<!-- Generator: Adobe Illustrator 23.1.1, SVG Export Plug-In . SVG Version: 6.00 Build 0)  -->
<svg version="1.1" id="レイヤー_1" xmlns="http://www.w3.org/2000/svg" xmlns:xlink="http://www.w3.org/1999/xlink" x="0px"
	 y="0px" viewBox="0 0 298.76 65.05" style="enable-background:new 0 0 298.76 65.05;" xml:space="preserve">
<style type="text/css">
	.st0{opacity:0.4;}
	.st1{fill:#FFFFFF;}
	.st2{fill:none;stroke:#FFFFFF;stroke-width:2.9773;stroke-linecap:round;stroke-linejoin:round;}
</style>
<g>
	<g class="st0">
		<path class="st1" d="M40.04,57.78H7.27V0h32.77v12.54H23.78v9.06h15.05v12.54H23.78v10.92h16.27V57.78z"/>
		<path class="st1" d="M110.85,0L93.37,57.78H73.47L56.15,0h19.18l5.91,29.29c0.21,1.13,0.5,2.56,0.85,4.29
			c0.35,1.73,0.67,3.44,0.97,5.14c0.3,1.7,0.45,3.09,0.45,4.17c0.11-1.08,0.27-2.45,0.49-4.13c0.21-1.67,0.46-3.36,0.73-5.06
			c0.27-1.7,0.51-3.12,0.73-4.25L91.75,0H110.85z"/>
		<path class="st1" d="M161.91,57.78h-32.78V0h32.78v12.54h-16.27v9.06h15.05v12.54h-15.05v10.92h16.27V57.78z"/>
		<path class="st1" d="M237.09,57.78h-21.85l-17.72-40.7h-0.32c0.11,1.89,0.21,3.59,0.32,5.1c0.11,1.51,0.2,3.12,0.28,4.81
			c0.08,1.7,0.12,3.28,0.12,4.73v26.06h-14.57V0h21.77l17.64,40.14h0.24c-0.11-1.83-0.2-3.48-0.28-4.94
			c-0.08-1.46-0.15-2.99-0.2-4.61c-0.05-1.62-0.08-3.1-0.08-4.45V0h14.65V57.78z"/>
		<path class="st1" d="M286.37,57.78h-16.51V12.79h-12.38V0h41.27v12.79h-12.38V57.78z"/>
	</g>
	<g>
		<path class="st2" d="M34.26,63.56H1.49V5.78h32.77v12.54H18v9.06h15.05v12.54H18v10.92h16.27V63.56z"/>
		<path class="st2" d="M105.07,5.78L87.59,63.56H67.68L50.37,5.78h19.18l5.91,29.29c0.21,1.13,0.5,2.56,0.85,4.29
			c0.35,1.73,0.67,3.44,0.97,5.14c0.3,1.7,0.45,3.09,0.45,4.17c0.11-1.08,0.27-2.45,0.49-4.13c0.21-1.67,0.46-3.36,0.73-5.06
			c0.27-1.7,0.51-3.12,0.73-4.25l6.31-29.46H105.07z"/>
		<path class="st2" d="M156.13,63.56h-32.78V5.78h32.78v12.54h-16.27v9.06h15.05v12.54h-15.05v10.92h16.27V63.56z"/>
		<path class="st2" d="M231.31,63.56h-21.85l-17.72-40.7h-0.32c0.11,1.89,0.21,3.59,0.32,5.1c0.11,1.51,0.2,3.12,0.28,4.81
			c0.08,1.7,0.12,3.28,0.12,4.73v26.06h-14.57V5.78h21.77l17.64,40.14h0.24c-0.11-1.83-0.2-3.48-0.28-4.94
			c-0.08-1.46-0.15-2.99-0.2-4.61c-0.05-1.62-0.08-3.1-0.08-4.45V5.78h14.65V63.56z"/>
		<path class="st2" d="M280.59,63.56h-16.51V18.57H251.7V5.78h41.27v12.79h-12.38V63.56z"/>
	</g>
	<g>
		<path class="st2" d="M34.26,63.56H1.49V5.78h32.77v12.54H18v9.06h15.05v12.54H18v10.92h16.27V63.56z"/>
		<path class="st2" d="M105.07,5.78L87.59,63.56H67.68L50.37,5.78h19.18l5.91,29.29c0.21,1.13,0.5,2.56,0.85,4.29
			c0.35,1.73,0.67,3.44,0.97,5.14c0.3,1.7,0.45,3.09,0.45,4.17c0.11-1.08,0.27-2.45,0.49-4.13c0.21-1.67,0.46-3.36,0.73-5.06
			c0.27-1.7,0.51-3.12,0.73-4.25l6.31-29.46H105.07z"/>
		<path class="st2" d="M156.13,63.56h-32.78V5.78h32.78v12.54h-16.27v9.06h15.05v12.54h-15.05v10.92h16.27V63.56z"/>
		<path class="st2" d="M231.31,63.56h-21.85l-17.72-40.7h-0.32c0.11,1.89,0.21,3.59,0.32,5.1c0.11,1.51,0.2,3.12,0.28,4.81
			c0.08,1.7,0.12,3.28,0.12,4.73v26.06h-14.57V5.78h21.77l17.64,40.14h0.24c-0.11-1.83-0.2-3.48-0.28-4.94
			c-0.08-1.46-0.15-2.99-0.2-4.61c-0.05-1.62-0.08-3.1-0.08-4.45V5.78h14.65V63.56z"/>
		<path class="st2" d="M280.59,63.56h-16.51V18.57H251.7V5.78h41.27v12.79h-12.38V63.56z"/>
	</g>
</g>
</svg>
