<?xml version="1.0" encoding="utf-8"?>
<!-- Generator: Adobe Illustrator 23.1.1, SVG Export Plug-In . SVG Version: 6.00 Build 0)  -->
<svg version="1.1" id="レイヤー_1" xmlns="http://www.w3.org/2000/svg" xmlns:xlink="http://www.w3.org/1999/xlink" x="0px"
	 y="0px" viewBox="0 0 183.04 66.75" style="enable-background:new 0 0 183.04 66.75;" xml:space="preserve">
<style type="text/css">
	.st0{opacity:0.4;}
	.st1{fill:#FFFFFF;}
	.st2{fill:none;stroke:#FFFFFF;stroke-width:2.9773;stroke-linecap:round;stroke-linejoin:round;}
</style>
<g>
	<g class="st0">
		<path class="st1" d="M36.16,58.67H19.65V13.68H7.27V0.89h41.27v12.79H36.16V58.67z"/>
		<path class="st1" d="M120.56,29.7c0,5.99-0.89,11.21-2.67,15.66s-4.64,7.92-8.58,10.4c-3.94,2.48-9.09,3.72-15.46,3.72
			c-6.15,0-11.2-1.24-15.13-3.72c-3.94-2.48-6.85-5.96-8.74-10.44c-1.89-4.48-2.83-9.71-2.83-15.7S68.1,18.42,69.98,14
			c1.89-4.42,4.8-7.86,8.74-10.32C82.66,1.23,87.73,0,93.94,0c6.36,0,11.5,1.23,15.42,3.68c3.91,2.46,6.76,5.91,8.54,10.36
			C119.67,18.49,120.56,23.71,120.56,29.7z M84.47,29.7c0,5.23,0.71,9.33,2.14,12.3c1.43,2.97,3.84,4.45,7.24,4.45
			c3.51,0,5.95-1.48,7.32-4.45c1.38-2.97,2.06-7.07,2.06-12.3c0-5.23-0.68-9.36-2.02-12.38c-1.35-3.02-3.78-4.53-7.28-4.53
			c-3.51,0-5.96,1.51-7.36,4.53C85.17,20.34,84.47,24.47,84.47,29.7z"/>
		<path class="st1" d="M162.16,0.89c6.85,0,12.04,1.59,15.58,4.77c3.53,3.18,5.3,7.72,5.3,13.6c0,3.51-0.63,6.8-1.9,9.87
			c-1.27,3.08-3.39,5.57-6.35,7.49c-2.97,1.92-6.99,2.87-12.06,2.87h-3.64v19.18h-16.51V0.89H162.16z M162.08,13.51h-2.99v13.27
			h2.35c1.19,0,2.36-0.53,3.52-1.58c1.16-1.05,1.74-2.9,1.74-5.54c0-1.83-0.38-3.32-1.13-4.45
			C164.8,14.08,163.64,13.51,162.08,13.51z"/>
	</g>
	<g>
		<path class="st2" d="M30.38,64.45H13.87V19.46H1.49V6.67h41.27v12.79H30.38V64.45z"/>
		<path class="st2" d="M114.78,35.48c0,5.99-0.89,11.21-2.67,15.66s-4.64,7.92-8.58,10.4c-3.94,2.48-9.09,3.72-15.46,3.72
			c-6.15,0-11.2-1.24-15.13-3.72c-3.94-2.48-6.85-5.96-8.74-10.44c-1.89-4.48-2.83-9.71-2.83-15.7s0.94-11.19,2.83-15.62
			c1.89-4.42,4.8-7.86,8.74-10.32c3.94-2.45,9.01-3.68,15.21-3.68c6.36,0,11.5,1.23,15.42,3.68c3.91,2.46,6.76,5.91,8.54,10.36
			C113.89,24.27,114.78,29.49,114.78,35.48z M78.69,35.48c0,5.23,0.71,9.33,2.14,12.3c1.43,2.97,3.84,4.45,7.24,4.45
			c3.51,0,5.95-1.48,7.32-4.45c1.38-2.97,2.06-7.07,2.06-12.3c0-5.23-0.68-9.36-2.02-12.38c-1.35-3.02-3.78-4.53-7.28-4.53
			c-3.51,0-5.96,1.51-7.36,4.53C79.39,26.12,78.69,30.25,78.69,35.48z"/>
		<path class="st2" d="M156.38,6.67c6.85,0,12.04,1.59,15.58,4.77c3.53,3.18,5.3,7.72,5.3,13.6c0,3.51-0.63,6.8-1.9,9.87
			c-1.27,3.08-3.39,5.57-6.35,7.49c-2.97,1.92-6.99,2.87-12.06,2.87h-3.64v19.18h-16.51V6.67H156.38z M156.3,19.29h-2.99v13.27h2.35
			c1.19,0,2.36-0.53,3.52-1.58c1.16-1.05,1.74-2.9,1.74-5.54c0-1.83-0.38-3.32-1.13-4.45C159.02,19.86,157.86,19.29,156.3,19.29z"/>
	</g>
	<g>
		<path class="st2" d="M30.38,64.45H13.87V19.46H1.49V6.67h41.27v12.79H30.38V64.45z"/>
		<path class="st2" d="M114.78,35.48c0,5.99-0.89,11.21-2.67,15.66s-4.64,7.92-8.58,10.4c-3.94,2.48-9.09,3.72-15.46,3.72
			c-6.15,0-11.2-1.24-15.13-3.72c-3.94-2.48-6.85-5.96-8.74-10.44c-1.89-4.48-2.83-9.71-2.83-15.7s0.94-11.19,2.83-15.62
			c1.89-4.42,4.8-7.86,8.74-10.32c3.94-2.45,9.01-3.68,15.21-3.68c6.36,0,11.5,1.23,15.42,3.68c3.91,2.46,6.76,5.91,8.54,10.36
			C113.89,24.27,114.78,29.49,114.78,35.48z M78.69,35.48c0,5.23,0.71,9.33,2.14,12.3c1.43,2.97,3.84,4.45,7.24,4.45
			c3.51,0,5.95-1.48,7.32-4.45c1.38-2.97,2.06-7.07,2.06-12.3c0-5.23-0.68-9.36-2.02-12.38c-1.35-3.02-3.78-4.53-7.28-4.53
			c-3.51,0-5.96,1.51-7.36,4.53C79.39,26.12,78.69,30.25,78.69,35.48z"/>
		<path class="st2" d="M156.38,6.67c6.85,0,12.04,1.59,15.58,4.77c3.53,3.18,5.3,7.72,5.3,13.6c0,3.51-0.63,6.8-1.9,9.87
			c-1.27,3.08-3.39,5.57-6.35,7.49c-2.97,1.92-6.99,2.87-12.06,2.87h-3.64v19.18h-16.51V6.67H156.38z M156.3,19.29h-2.99v13.27h2.35
			c1.19,0,2.36-0.53,3.52-1.58c1.16-1.05,1.74-2.9,1.74-5.54c0-1.83-0.38-3.32-1.13-4.45C159.02,19.86,157.86,19.29,156.3,19.29z"/>
	</g>
</g>
</svg>
