<?xml version="1.0" encoding="utf-8"?>
<!-- Generator: Adobe Illustrator 23.1.1, SVG Export Plug-In . SVG Version: 6.00 Build 0)  -->
<svg version="1.1" id="レイヤー_1" xmlns="http://www.w3.org/2000/svg" xmlns:xlink="http://www.w3.org/1999/xlink" x="0px"
	 y="0px" viewBox="0 0 431.47 66.75" style="enable-background:new 0 0 431.47 66.75;" xml:space="preserve">
<style type="text/css">
	.st0{opacity:0.4;}
	.st1{fill:#FFFFFF;}
	.st2{fill:none;stroke:#FFFFFF;stroke-width:2.9773;stroke-linecap:round;stroke-linejoin:round;}
</style>
<g>
	<g class="st0">
		<path class="st1" d="M34.62,12.87c-3.45,0-6.07,1.51-7.85,4.53c-1.78,3.02-2.67,7.23-2.67,12.62c0,5.45,1,9.59,2.99,12.42
			c2,2.83,4.94,4.25,8.82,4.25c2.37,0,4.63-0.35,6.76-1.05c2.13-0.7,4.19-1.56,6.19-2.59v13.19c-2.38,1.13-4.88,1.96-7.53,2.47
			c-2.64,0.51-5.34,0.77-8.09,0.77c-6.1,0-11.06-1.24-14.89-3.72c-3.83-2.48-6.64-5.95-8.42-10.4c-1.78-4.45-2.67-9.59-2.67-15.42
			c0-5.83,1.04-10.98,3.12-15.46c2.08-4.48,5.1-8,9.06-10.56c3.97-2.56,8.83-3.84,14.61-3.84c2.59,0,5.47,0.35,8.66,1.05
			c3.18,0.7,6.07,1.7,8.66,2.99l-4.94,12.3c-1.83-1.02-3.68-1.87-5.54-2.55C39.03,13.2,36.94,12.87,34.62,12.87z"/>
		<path class="st1" d="M123.48,29.7c0,5.99-0.89,11.21-2.67,15.66c-1.78,4.45-4.64,7.92-8.58,10.4c-3.94,2.48-9.09,3.72-15.46,3.72
			c-6.15,0-11.2-1.24-15.13-3.72c-3.94-2.48-6.85-5.96-8.74-10.44c-1.89-4.48-2.83-9.71-2.83-15.7S71.01,18.42,72.9,14
			c1.89-4.42,4.8-7.86,8.74-10.32C85.58,1.23,90.65,0,96.85,0c6.36,0,11.5,1.23,15.42,3.68c3.91,2.46,6.76,5.91,8.54,10.36
			S123.48,23.71,123.48,29.7z M87.38,29.7c0,5.23,0.71,9.33,2.14,12.3c1.43,2.97,3.84,4.45,7.24,4.45c3.51,0,5.95-1.48,7.32-4.45
			c1.38-2.97,2.06-7.07,2.06-12.3c0-5.23-0.68-9.36-2.02-12.38c-1.35-3.02-3.78-4.53-7.28-4.53c-3.51,0-5.96,1.51-7.36,4.53
			C88.08,20.34,87.38,24.47,87.38,29.7z"/>
		<path class="st1" d="M199.22,58.67h-21.85l-17.72-40.71h-0.32c0.11,1.89,0.21,3.59,0.32,5.1c0.11,1.51,0.2,3.12,0.28,4.81
			c0.08,1.7,0.12,3.28,0.12,4.73v26.06h-14.57V0.89h21.77l17.64,40.14h0.24c-0.11-1.83-0.2-3.48-0.28-4.94
			c-0.08-1.46-0.15-2.99-0.2-4.61c-0.05-1.62-0.08-3.1-0.08-4.45V0.89h14.65V58.67z"/>
		<path class="st1" d="M248.5,58.67h-16.51V13.68h-12.38V0.89h41.27v12.79H248.5V58.67z"/>
		<path class="st1" d="M314.05,58.67h-32.77V0.89h32.77v12.54h-16.27v9.06h15.05v12.54h-15.05v10.92h16.27V58.67z"/>
		<path class="st1" d="M372.88,41.11c0,3.18-0.73,6.16-2.19,8.94s-3.79,5.04-7,6.8c-3.21,1.75-7.49,2.63-12.83,2.63
			c-2.81,0-5.17-0.12-7.08-0.36c-1.92-0.24-3.67-0.63-5.26-1.17c-1.59-0.54-3.31-1.24-5.14-2.1V41.92c3.13,1.57,6.26,2.77,9.39,3.6
			c3.13,0.84,5.83,1.25,8.09,1.25c1.78,0,3.13-0.4,4.05-1.21c0.92-0.81,1.38-1.83,1.38-3.07c0-0.97-0.24-1.82-0.73-2.55
			s-1.42-1.47-2.79-2.23c-1.38-0.75-3.33-1.67-5.87-2.75c-3.24-1.35-5.83-2.78-7.77-4.29c-1.94-1.51-3.35-3.34-4.21-5.5
			c-0.86-2.16-1.29-4.88-1.29-8.17c0-3.72,0.93-6.84,2.79-9.35c1.86-2.51,4.41-4.4,7.65-5.67c3.24-1.27,6.96-1.9,11.17-1.9
			c3.99,0,7.49,0.43,10.48,1.29s5.43,1.81,7.32,2.83l-4.94,12.06c-2.21-1.13-4.53-2.04-6.96-2.71c-2.43-0.67-4.56-1.01-6.39-1.01
			c-1.73,0-2.95,0.35-3.68,1.05c-0.73,0.7-1.09,1.59-1.09,2.67c0,0.92,0.31,1.73,0.93,2.43c0.62,0.7,1.71,1.47,3.28,2.31
			c1.56,0.84,3.8,1.96,6.72,3.36c2.59,1.19,4.77,2.51,6.56,3.96c1.78,1.46,3.13,3.21,4.05,5.26
			C372.42,35.63,372.88,38.14,372.88,41.11z"/>
		<path class="st1" d="M419.09,58.67h-16.51V13.68H390.2V0.89h41.27v12.79h-12.38V58.67z"/>
	</g>
	<g>
		<path class="st2" d="M28.84,18.65c-3.45,0-6.07,1.51-7.85,4.53c-1.78,3.02-2.67,7.23-2.67,12.62c0,5.45,1,9.59,2.99,12.42
			c2,2.83,4.94,4.25,8.82,4.25c2.37,0,4.63-0.35,6.76-1.05c2.13-0.7,4.19-1.56,6.19-2.59v13.19c-2.38,1.13-4.88,1.96-7.53,2.47
			c-2.64,0.51-5.34,0.77-8.09,0.77c-6.1,0-11.06-1.24-14.89-3.72c-3.83-2.48-6.64-5.95-8.42-10.4c-1.78-4.45-2.67-9.59-2.67-15.42
			c0-5.83,1.04-10.98,3.12-15.46c2.08-4.48,5.1-8,9.06-10.56c3.97-2.56,8.83-3.84,14.61-3.84c2.59,0,5.47,0.35,8.66,1.05
			c3.18,0.7,6.07,1.7,8.66,2.99l-4.94,12.3c-1.83-1.02-3.68-1.87-5.54-2.55C33.25,18.98,31.16,18.65,28.84,18.65z"/>
		<path class="st2" d="M117.7,35.48c0,5.99-0.89,11.21-2.67,15.66c-1.78,4.45-4.64,7.92-8.58,10.4c-3.94,2.48-9.09,3.72-15.46,3.72
			c-6.15,0-11.2-1.24-15.13-3.72c-3.94-2.48-6.85-5.96-8.74-10.44c-1.89-4.48-2.83-9.71-2.83-15.7s0.94-11.19,2.83-15.62
			c1.89-4.42,4.8-7.86,8.74-10.32c3.94-2.45,9.01-3.68,15.21-3.68c6.36,0,11.5,1.23,15.42,3.68c3.91,2.46,6.76,5.91,8.54,10.36
			S117.7,29.49,117.7,35.48z M81.6,35.48c0,5.23,0.71,9.33,2.14,12.3c1.43,2.97,3.84,4.45,7.24,4.45c3.51,0,5.95-1.48,7.32-4.45
			c1.38-2.97,2.06-7.07,2.06-12.3c0-5.23-0.68-9.36-2.02-12.38c-1.35-3.02-3.78-4.53-7.28-4.53c-3.51,0-5.96,1.51-7.36,4.53
			C82.3,26.12,81.6,30.25,81.6,35.48z"/>
		<path class="st2" d="M193.44,64.45h-21.85l-17.72-40.71h-0.32c0.11,1.89,0.21,3.59,0.32,5.1c0.11,1.51,0.2,3.12,0.28,4.81
			c0.08,1.7,0.12,3.28,0.12,4.73v26.06h-14.57V6.67h21.77l17.64,40.14h0.24c-0.11-1.83-0.2-3.48-0.28-4.94
			c-0.08-1.46-0.15-2.99-0.2-4.61c-0.05-1.62-0.08-3.1-0.08-4.45V6.67h14.65V64.45z"/>
		<path class="st2" d="M242.72,64.45h-16.51V19.46h-12.38V6.67h41.27v12.79h-12.38V64.45z"/>
		<path class="st2" d="M308.27,64.45H275.5V6.67h32.77v12.54H292v9.06h15.05v12.54H292v10.92h16.27V64.45z"/>
		<path class="st2" d="M367.1,46.89c0,3.18-0.73,6.16-2.19,8.94s-3.79,5.04-7,6.8c-3.21,1.75-7.49,2.63-12.83,2.63
			c-2.81,0-5.17-0.12-7.08-0.36c-1.92-0.24-3.67-0.63-5.26-1.17c-1.59-0.54-3.31-1.24-5.14-2.1V47.7c3.13,1.57,6.26,2.77,9.39,3.6
			c3.13,0.84,5.83,1.25,8.09,1.25c1.78,0,3.13-0.4,4.05-1.21c0.92-0.81,1.38-1.83,1.38-3.07c0-0.97-0.24-1.82-0.73-2.55
			s-1.42-1.47-2.79-2.23c-1.38-0.75-3.33-1.67-5.87-2.75c-3.24-1.35-5.83-2.78-7.77-4.29c-1.94-1.51-3.35-3.34-4.21-5.5
			c-0.86-2.16-1.29-4.88-1.29-8.17c0-3.72,0.93-6.84,2.79-9.35c1.86-2.51,4.41-4.4,7.65-5.67c3.24-1.27,6.96-1.9,11.17-1.9
			c3.99,0,7.49,0.43,10.48,1.29s5.43,1.81,7.32,2.83l-4.94,12.06c-2.21-1.13-4.53-2.04-6.96-2.71c-2.43-0.67-4.56-1.01-6.39-1.01
			c-1.73,0-2.95,0.35-3.68,1.05c-0.73,0.7-1.09,1.59-1.09,2.67c0,0.92,0.31,1.73,0.93,2.43c0.62,0.7,1.71,1.47,3.28,2.31
			c1.56,0.84,3.8,1.96,6.72,3.36c2.59,1.19,4.77,2.51,6.56,3.96c1.78,1.46,3.13,3.21,4.05,5.26
			C366.64,41.41,367.1,43.92,367.1,46.89z"/>
		<path class="st2" d="M413.31,64.45H396.8V19.46h-12.38V6.67h41.27v12.79h-12.38V64.45z"/>
	</g>
	<g>
		<path class="st2" d="M28.84,18.65c-3.45,0-6.07,1.51-7.85,4.53c-1.78,3.02-2.67,7.23-2.67,12.62c0,5.45,1,9.59,2.99,12.42
			c2,2.83,4.94,4.25,8.82,4.25c2.37,0,4.63-0.35,6.76-1.05c2.13-0.7,4.19-1.56,6.19-2.59v13.19c-2.38,1.13-4.88,1.96-7.53,2.47
			c-2.64,0.51-5.34,0.77-8.09,0.77c-6.1,0-11.06-1.24-14.89-3.72c-3.83-2.48-6.64-5.95-8.42-10.4c-1.78-4.45-2.67-9.59-2.67-15.42
			c0-5.83,1.04-10.98,3.12-15.46c2.08-4.48,5.1-8,9.06-10.56c3.97-2.56,8.83-3.84,14.61-3.84c2.59,0,5.47,0.35,8.66,1.05
			c3.18,0.7,6.07,1.7,8.66,2.99l-4.94,12.3c-1.83-1.02-3.68-1.87-5.54-2.55C33.25,18.98,31.16,18.65,28.84,18.65z"/>
		<path class="st2" d="M117.7,35.48c0,5.99-0.89,11.21-2.67,15.66c-1.78,4.45-4.64,7.92-8.58,10.4c-3.94,2.48-9.09,3.72-15.46,3.72
			c-6.15,0-11.2-1.24-15.13-3.72c-3.94-2.48-6.85-5.96-8.74-10.44c-1.89-4.48-2.83-9.71-2.83-15.7s0.94-11.19,2.83-15.62
			c1.89-4.42,4.8-7.86,8.74-10.32c3.94-2.45,9.01-3.68,15.21-3.68c6.36,0,11.5,1.23,15.42,3.68c3.91,2.46,6.76,5.91,8.54,10.36
			S117.7,29.49,117.7,35.48z M81.6,35.48c0,5.23,0.71,9.33,2.14,12.3c1.43,2.97,3.84,4.45,7.24,4.45c3.51,0,5.95-1.48,7.32-4.45
			c1.38-2.97,2.06-7.07,2.06-12.3c0-5.23-0.68-9.36-2.02-12.38c-1.35-3.02-3.78-4.53-7.28-4.53c-3.51,0-5.96,1.51-7.36,4.53
			C82.3,26.12,81.6,30.25,81.6,35.48z"/>
		<path class="st2" d="M193.44,64.45h-21.85l-17.72-40.71h-0.32c0.11,1.89,0.21,3.59,0.32,5.1c0.11,1.51,0.2,3.12,0.28,4.81
			c0.08,1.7,0.12,3.28,0.12,4.73v26.06h-14.57V6.67h21.77l17.64,40.14h0.24c-0.11-1.83-0.2-3.48-0.28-4.94
			c-0.08-1.46-0.15-2.99-0.2-4.61c-0.05-1.62-0.08-3.1-0.08-4.45V6.67h14.65V64.45z"/>
		<path class="st2" d="M242.72,64.45h-16.51V19.46h-12.38V6.67h41.27v12.79h-12.38V64.45z"/>
		<path class="st2" d="M308.27,64.45H275.5V6.67h32.77v12.54H292v9.06h15.05v12.54H292v10.92h16.27V64.45z"/>
		<path class="st2" d="M367.1,46.89c0,3.18-0.73,6.16-2.19,8.94s-3.79,5.04-7,6.8c-3.21,1.75-7.49,2.63-12.83,2.63
			c-2.81,0-5.17-0.12-7.08-0.36c-1.92-0.24-3.67-0.63-5.26-1.17c-1.59-0.54-3.31-1.24-5.14-2.1V47.7c3.13,1.57,6.26,2.77,9.39,3.6
			c3.13,0.84,5.83,1.25,8.09,1.25c1.78,0,3.13-0.4,4.05-1.21c0.92-0.81,1.38-1.83,1.38-3.07c0-0.97-0.24-1.82-0.73-2.55
			s-1.42-1.47-2.79-2.23c-1.38-0.75-3.33-1.67-5.87-2.75c-3.24-1.35-5.83-2.78-7.77-4.29c-1.94-1.51-3.35-3.34-4.21-5.5
			c-0.86-2.16-1.29-4.88-1.29-8.17c0-3.72,0.93-6.84,2.79-9.35c1.86-2.51,4.41-4.4,7.65-5.67c3.24-1.27,6.96-1.9,11.17-1.9
			c3.99,0,7.49,0.43,10.48,1.29s5.43,1.81,7.32,2.83l-4.94,12.06c-2.21-1.13-4.53-2.04-6.96-2.71c-2.43-0.67-4.56-1.01-6.39-1.01
			c-1.73,0-2.95,0.35-3.68,1.05c-0.73,0.7-1.09,1.59-1.09,2.67c0,0.92,0.31,1.73,0.93,2.43c0.62,0.7,1.71,1.47,3.28,2.31
			c1.56,0.84,3.8,1.96,6.72,3.36c2.59,1.19,4.77,2.51,6.56,3.96c1.78,1.46,3.13,3.21,4.05,5.26
			C366.64,41.41,367.1,43.92,367.1,46.89z"/>
		<path class="st2" d="M413.31,64.45H396.8V19.46h-12.38V6.67h41.27v12.79h-12.38V64.45z"/>
	</g>
</g>
</svg>
