<?xml version="1.0" encoding="utf-8"?>
<!-- Generator: Adobe Illustrator 23.1.1, SVG Export Plug-In . SVG Version: 6.00 Build 0)  -->
<svg version="1.1" id="レイヤー_1" xmlns="http://www.w3.org/2000/svg" xmlns:xlink="http://www.w3.org/1999/xlink" x="0px"
	 y="0px" viewBox="0 0 328.86 66.75" style="enable-background:new 0 0 328.86 66.75;" xml:space="preserve">
<style type="text/css">
	.st0{opacity:0.4;}
	.st1{fill:#FFFFFF;}
	.st2{fill:none;stroke:#FFFFFF;stroke-width:2.9773;stroke-linecap:round;stroke-linejoin:round;}
</style>
<g>
	<g class="st0">
		<path class="st1" d="M45.95,58.67l-1.94-10.84H27.58l-2.1,10.84H7.27L24.18,0.65h22.66L64,58.67H45.95z M40.85,35.04l-2.27-9.63
			c-0.43-1.89-0.94-4.17-1.54-6.84c-0.59-2.67-1.05-5.19-1.38-7.57c-0.32,2.37-0.76,4.87-1.29,7.49c-0.54,2.62-1.03,4.9-1.46,6.84
			l-2.27,9.71H40.85z"/>
		<path class="st1" d="M82.28,0.89h20.07c5.45,0,9.76,0.55,12.95,1.66c3.18,1.11,5.45,2.72,6.8,4.86c1.35,2.13,2.02,4.76,2.02,7.89
			c0,2.54-0.49,4.68-1.46,6.43c-0.97,1.75-2.12,3.14-3.44,4.17c-1.32,1.03-2.55,1.73-3.68,2.1v0.4c1.24,0.43,2.6,1.09,4.09,1.98
			c1.48,0.89,2.75,2.24,3.8,4.05c1.05,1.81,1.58,4.25,1.58,7.32c0,5.23-1.89,9.36-5.66,12.38c-3.78,3.02-8.93,4.53-15.46,4.53H82.28
			V0.89z M98.79,23.06h3.08c1.94,0,3.32-0.54,4.13-1.62c0.81-1.08,1.21-2.37,1.21-3.88c0-3.24-1.81-4.86-5.42-4.86h-2.99V23.06z
			 M98.79,34.47v12.14h3.8c2,0,3.41-0.58,4.25-1.74c0.84-1.16,1.25-2.63,1.25-4.41c0-1.56-0.4-2.95-1.21-4.17s-2.32-1.82-4.53-1.82
			H98.79z"/>
		<path class="st1" d="M198.25,29.7c0,5.99-0.89,11.21-2.67,15.66s-4.64,7.92-8.58,10.4c-3.94,2.48-9.09,3.72-15.46,3.72
			c-6.15,0-11.2-1.24-15.13-3.72c-3.94-2.48-6.85-5.96-8.74-10.44c-1.89-4.48-2.83-9.71-2.83-15.7s0.94-11.19,2.83-15.62
			c1.89-4.42,4.8-7.86,8.74-10.32C160.35,1.23,165.42,0,171.62,0c6.36,0,11.5,1.23,15.42,3.68c3.91,2.46,6.76,5.91,8.54,10.36
			C197.36,18.49,198.25,23.71,198.25,29.7z M162.16,29.7c0,5.23,0.71,9.33,2.14,12.3c1.43,2.97,3.84,4.45,7.24,4.45
			c3.51,0,5.95-1.48,7.32-4.45c1.38-2.97,2.06-7.07,2.06-12.3c0-5.23-0.68-9.36-2.02-12.38c-1.35-3.02-3.78-4.53-7.28-4.53
			c-3.51,0-5.96,1.51-7.36,4.53C162.86,20.34,162.16,24.47,162.16,29.7z"/>
		<path class="st1" d="M267.52,0.89v34.8c0,7.28-2,13.07-5.99,17.36c-3.99,4.29-9.98,6.43-17.97,6.43c-7.66,0-13.51-2.04-17.56-6.11
			c-4.05-4.07-6.07-9.86-6.07-17.36V0.89h16.59V34.8c0,4.1,0.61,7.07,1.82,8.9c1.21,1.83,3.01,2.75,5.38,2.75
			c2.59,0,4.45-0.93,5.58-2.79s1.7-4.84,1.7-8.94V0.89H267.52z"/>
		<path class="st1" d="M316.48,58.67h-16.51V13.68h-12.38V0.89h41.27v12.79h-12.38V58.67z"/>
	</g>
	<g>
		<path class="st2" d="M40.17,64.45l-1.94-10.84H21.8l-2.1,10.84H1.49L18.4,6.43h22.66l17.16,58.02H40.17z M35.07,40.82l-2.27-9.63
			c-0.43-1.89-0.94-4.17-1.54-6.84c-0.59-2.67-1.05-5.19-1.38-7.57c-0.32,2.37-0.76,4.87-1.29,7.49c-0.54,2.62-1.03,4.9-1.46,6.84
			l-2.27,9.71H35.07z"/>
		<path class="st2" d="M76.5,6.67h20.07c5.45,0,9.76,0.55,12.95,1.66c3.18,1.11,5.45,2.72,6.8,4.86c1.35,2.13,2.02,4.76,2.02,7.89
			c0,2.54-0.49,4.68-1.46,6.43c-0.97,1.75-2.12,3.14-3.44,4.17c-1.32,1.03-2.55,1.73-3.68,2.1v0.4c1.24,0.43,2.6,1.09,4.09,1.98
			c1.48,0.89,2.75,2.24,3.8,4.05c1.05,1.81,1.58,4.25,1.58,7.32c0,5.23-1.89,9.36-5.66,12.38c-3.78,3.02-8.93,4.53-15.46,4.53H76.5
			V6.67z M93.01,28.84h3.08c1.94,0,3.32-0.54,4.13-1.62c0.81-1.08,1.21-2.37,1.21-3.88c0-3.24-1.81-4.86-5.42-4.86h-2.99V28.84z
			 M93.01,40.25v12.14h3.8c2,0,3.41-0.58,4.25-1.74c0.84-1.16,1.25-2.63,1.25-4.41c0-1.56-0.4-2.95-1.21-4.17s-2.32-1.82-4.53-1.82
			H93.01z"/>
		<path class="st2" d="M192.47,35.48c0,5.99-0.89,11.21-2.67,15.66s-4.64,7.92-8.58,10.4c-3.94,2.48-9.09,3.72-15.46,3.72
			c-6.15,0-11.2-1.24-15.13-3.72c-3.94-2.48-6.85-5.96-8.74-10.44c-1.89-4.48-2.83-9.71-2.83-15.7s0.94-11.19,2.83-15.62
			c1.89-4.42,4.8-7.86,8.74-10.32c3.94-2.45,9.01-3.68,15.21-3.68c6.36,0,11.5,1.23,15.42,3.68c3.91,2.46,6.76,5.91,8.54,10.36
			C191.58,24.27,192.47,29.49,192.47,35.48z M156.38,35.48c0,5.23,0.71,9.33,2.14,12.3c1.43,2.97,3.84,4.45,7.24,4.45
			c3.51,0,5.95-1.48,7.32-4.45c1.38-2.97,2.06-7.07,2.06-12.3c0-5.23-0.68-9.36-2.02-12.38c-1.35-3.02-3.78-4.53-7.28-4.53
			c-3.51,0-5.96,1.51-7.36,4.53C157.08,26.12,156.38,30.25,156.38,35.48z"/>
		<path class="st2" d="M261.74,6.67v34.8c0,7.28-2,13.07-5.99,17.36c-3.99,4.29-9.98,6.43-17.97,6.43c-7.66,0-13.51-2.04-17.56-6.11
			c-4.05-4.07-6.07-9.86-6.07-17.36V6.67h16.59v33.91c0,4.1,0.61,7.07,1.82,8.9c1.21,1.83,3.01,2.75,5.38,2.75
			c2.59,0,4.45-0.93,5.58-2.79s1.7-4.84,1.7-8.94V6.67H261.74z"/>
		<path class="st2" d="M310.7,64.45h-16.51V19.46h-12.38V6.67h41.27v12.79H310.7V64.45z"/>
	</g>
	<g>
		<path class="st2" d="M40.17,64.45l-1.94-10.84H21.8l-2.1,10.84H1.49L18.4,6.43h22.66l17.16,58.02H40.17z M35.07,40.82l-2.27-9.63
			c-0.43-1.89-0.94-4.17-1.54-6.84c-0.59-2.67-1.05-5.19-1.38-7.57c-0.32,2.37-0.76,4.87-1.29,7.49c-0.54,2.62-1.03,4.9-1.46,6.84
			l-2.27,9.71H35.07z"/>
		<path class="st2" d="M76.5,6.67h20.07c5.45,0,9.76,0.55,12.95,1.66c3.18,1.11,5.45,2.72,6.8,4.86c1.35,2.13,2.02,4.76,2.02,7.89
			c0,2.54-0.49,4.68-1.46,6.43c-0.97,1.75-2.12,3.14-3.44,4.17c-1.32,1.03-2.55,1.73-3.68,2.1v0.4c1.24,0.43,2.6,1.09,4.09,1.98
			c1.48,0.89,2.75,2.24,3.8,4.05c1.05,1.81,1.58,4.25,1.58,7.32c0,5.23-1.89,9.36-5.66,12.38c-3.78,3.02-8.93,4.53-15.46,4.53H76.5
			V6.67z M93.01,28.84h3.08c1.94,0,3.32-0.54,4.13-1.62c0.81-1.08,1.21-2.37,1.21-3.88c0-3.24-1.81-4.86-5.42-4.86h-2.99V28.84z
			 M93.01,40.25v12.14h3.8c2,0,3.41-0.58,4.25-1.74c0.84-1.16,1.25-2.63,1.25-4.41c0-1.56-0.4-2.95-1.21-4.17s-2.32-1.82-4.53-1.82
			H93.01z"/>
		<path class="st2" d="M192.47,35.48c0,5.99-0.89,11.21-2.67,15.66s-4.64,7.92-8.58,10.4c-3.94,2.48-9.09,3.72-15.46,3.72
			c-6.15,0-11.2-1.24-15.13-3.72c-3.94-2.48-6.85-5.96-8.74-10.44c-1.89-4.48-2.83-9.71-2.83-15.7s0.94-11.19,2.83-15.62
			c1.89-4.42,4.8-7.86,8.74-10.32c3.94-2.45,9.01-3.68,15.21-3.68c6.36,0,11.5,1.23,15.42,3.68c3.91,2.46,6.76,5.91,8.54,10.36
			C191.58,24.27,192.47,29.49,192.47,35.48z M156.38,35.48c0,5.23,0.71,9.33,2.14,12.3c1.43,2.97,3.84,4.45,7.24,4.45
			c3.51,0,5.95-1.48,7.32-4.45c1.38-2.97,2.06-7.07,2.06-12.3c0-5.23-0.68-9.36-2.02-12.38c-1.35-3.02-3.78-4.53-7.28-4.53
			c-3.51,0-5.96,1.51-7.36,4.53C157.08,26.12,156.38,30.25,156.38,35.48z"/>
		<path class="st2" d="M261.74,6.67v34.8c0,7.28-2,13.07-5.99,17.36c-3.99,4.29-9.98,6.43-17.97,6.43c-7.66,0-13.51-2.04-17.56-6.11
			c-4.05-4.07-6.07-9.86-6.07-17.36V6.67h16.59v33.91c0,4.1,0.61,7.07,1.82,8.9c1.21,1.83,3.01,2.75,5.38,2.75
			c2.59,0,4.45-0.93,5.58-2.79s1.7-4.84,1.7-8.94V6.67H261.74z"/>
		<path class="st2" d="M310.7,64.45h-16.51V19.46h-12.38V6.67h41.27v12.79H310.7V64.45z"/>
	</g>
</g>
</svg>
