<?xml version="1.0" encoding="utf-8"?>
<!-- Generator: Adobe Illustrator 23.1.1, SVG Export Plug-In . SVG Version: 6.00 Build 0)  -->
<svg version="1.1" id="レイヤー_1" xmlns="http://www.w3.org/2000/svg" xmlns:xlink="http://www.w3.org/1999/xlink" x="0px"
	 y="0px" viewBox="0 0 749.42 66.75" style="enable-background:new 0 0 749.42 66.75;" xml:space="preserve">
<style type="text/css">
	.st0{opacity:0.4;}
	.st1{fill:#FFFFFF;}
	.st2{fill:none;stroke:#FFFFFF;stroke-width:2.9773;stroke-linecap:round;stroke-linejoin:round;}
</style>
<g>
	<g class="st0">
		<path class="st1" d="M36.16,58.67H19.65V13.68H7.27V0.89h41.27v12.79H36.16V58.67z"/>
		<path class="st1" d="M120.56,29.7c0,5.99-0.89,11.21-2.67,15.66c-1.78,4.45-4.64,7.92-8.58,10.4c-3.94,2.48-9.09,3.72-15.46,3.72
			c-6.15,0-11.2-1.24-15.13-3.72c-3.94-2.48-6.85-5.96-8.74-10.44c-1.89-4.48-2.83-9.71-2.83-15.7S68.1,18.42,69.98,14
			c1.89-4.42,4.8-7.86,8.74-10.32C82.66,1.23,87.73,0,93.94,0c6.37,0,11.5,1.23,15.42,3.68c3.91,2.46,6.76,5.91,8.54,10.36
			C119.67,18.49,120.56,23.71,120.56,29.7z M84.47,29.7c0,5.23,0.71,9.33,2.14,12.3c1.43,2.97,3.84,4.45,7.24,4.45
			c3.51,0,5.95-1.48,7.32-4.45c1.38-2.97,2.06-7.07,2.06-12.3c0-5.23-0.68-9.36-2.02-12.38c-1.35-3.02-3.78-4.53-7.28-4.53
			c-3.51,0-5.96,1.51-7.36,4.53C85.17,20.34,84.47,24.47,84.47,29.7z"/>
		<path class="st1" d="M162.16,0.89c6.85,0,12.04,1.59,15.58,4.77c3.53,3.18,5.3,7.72,5.3,13.6c0,3.51-0.63,6.8-1.9,9.87
			s-3.39,5.57-6.35,7.49c-2.97,1.92-6.99,2.87-12.06,2.87h-3.64v19.18h-16.51V0.89H162.16z M162.08,13.51h-2.99v13.27h2.35
			c1.19,0,2.36-0.53,3.52-1.58c1.16-1.05,1.74-2.9,1.74-5.54c0-1.83-0.38-3.32-1.13-4.45S163.64,13.51,162.08,13.51z"/>
		<path class="st1" d="M231.43,58.67h-30.27v-8.9l6.88-2.75V12.46l-6.88-2.67v-8.9h30.27v8.9l-6.8,2.67v34.55l6.8,2.75V58.67z"/>
		<path class="st1" d="M277.96,12.87c-3.45,0-6.07,1.51-7.85,4.53c-1.78,3.02-2.67,7.23-2.67,12.62c0,5.45,1,9.59,2.99,12.42
			c1.99,2.83,4.94,4.25,8.82,4.25c2.37,0,4.62-0.35,6.76-1.05c2.13-0.7,4.19-1.56,6.19-2.59v13.19c-2.38,1.13-4.88,1.96-7.53,2.47
			c-2.64,0.51-5.34,0.77-8.09,0.77c-6.1,0-11.06-1.24-14.89-3.72c-3.83-2.48-6.64-5.95-8.42-10.4c-1.78-4.45-2.67-9.59-2.67-15.42
			s1.04-10.98,3.12-15.46c2.08-4.48,5.1-8,9.06-10.56c3.97-2.56,8.83-3.84,14.61-3.84c2.59,0,5.47,0.35,8.66,1.05
			c3.18,0.7,6.07,1.7,8.66,2.99l-4.94,12.3c-1.83-1.02-3.68-1.87-5.54-2.55C282.37,13.2,280.28,12.87,277.96,12.87z"/>
		<path class="st1" d="M352.57,41.11c0,3.18-0.73,6.16-2.18,8.94c-1.46,2.78-3.79,5.04-7,6.8c-3.21,1.75-7.49,2.63-12.83,2.63
			c-2.8,0-5.17-0.12-7.08-0.36c-1.92-0.24-3.67-0.63-5.26-1.17c-1.59-0.54-3.31-1.24-5.14-2.1V41.92c3.13,1.57,6.26,2.77,9.39,3.6
			c3.13,0.84,5.83,1.25,8.09,1.25c1.78,0,3.13-0.4,4.05-1.21c0.92-0.81,1.38-1.83,1.38-3.07c0-0.97-0.24-1.82-0.73-2.55
			s-1.42-1.47-2.79-2.23c-1.38-0.75-3.33-1.67-5.87-2.75c-3.24-1.35-5.83-2.78-7.77-4.29c-1.94-1.51-3.35-3.34-4.21-5.5
			c-0.86-2.16-1.29-4.88-1.29-8.17c0-3.72,0.93-6.84,2.79-9.35c1.86-2.51,4.41-4.4,7.65-5.66c3.24-1.27,6.96-1.9,11.17-1.9
			c3.99,0,7.48,0.43,10.48,1.29c2.99,0.86,5.44,1.81,7.32,2.83l-4.94,12.06c-2.21-1.13-4.53-2.04-6.96-2.71
			c-2.43-0.67-4.56-1.01-6.39-1.01c-1.73,0-2.95,0.35-3.68,1.05c-0.73,0.7-1.09,1.59-1.09,2.67c0,0.92,0.31,1.73,0.93,2.43
			c0.62,0.7,1.71,1.47,3.28,2.31c1.56,0.84,3.8,1.96,6.72,3.36c2.59,1.19,4.77,2.51,6.55,3.96c1.78,1.46,3.13,3.21,4.05,5.26
			C352.11,35.63,352.57,38.14,352.57,41.11z"/>
		<path class="st1" d="M413.5,6.01c5.56,0,9.83,1.09,12.83,3.28s4.49,5.22,4.49,9.1c0,3.01-0.84,5.62-2.51,7.83
			c-1.67,2.21-3.91,4.14-6.72,5.79l5.58,6.7c0.81-1.26,1.52-2.68,2.14-4.26c0.62-1.58,1.06-3.24,1.33-4.99h16.91
			c-0.81,3.54-2.08,6.94-3.8,10.2c-1.73,3.25-3.4,5.95-5.02,8.08l12.22,10.92h-21.44l-3.32-3.64c-0.97,0.63-1.9,1.21-2.79,1.75
			c-0.89,0.53-1.9,1-3.03,1.38c-1.13,0.39-2.55,0.69-4.25,0.91c-1.7,0.22-3.87,0.33-6.51,0.33c-4.26,0-7.86-0.68-10.8-2.04
			c-2.94-1.36-5.15-3.18-6.64-5.46c-1.48-2.28-2.22-4.83-2.22-7.65c0-6.26,3.4-11.02,10.2-14.28c-1.24-1.65-2.32-3.41-3.24-5.28
			c-0.92-1.87-1.38-3.97-1.38-6.3c0-3.59,1.44-6.55,4.33-8.89S407.3,6.01,413.5,6.01z M408.81,37.62c-0.86,0.78-1.45,1.64-1.74,2.59
			c-0.3,0.95-0.45,1.96-0.45,3.02c0,1.51,0.42,2.73,1.25,3.68c0.84,0.95,2.01,1.42,3.52,1.42c1.24,0,2.29-0.18,3.16-0.55
			c0.86-0.36,1.43-0.76,1.7-1.2L408.81,37.62z M413.18,15.12c-0.92,0-1.66,0.29-2.22,0.87c-0.57,0.58-0.85,1.53-0.85,2.84
			c0,1.07,0.34,2.06,1.01,2.99c0.67,0.92,1.39,1.77,2.14,2.55c0.97-0.78,1.71-1.69,2.23-2.73c0.51-1.04,0.77-2.12,0.77-3.24
			C416.26,16.21,415.23,15.12,413.18,15.12z"/>
		<path class="st1" d="M538.93,58.67h-21.85l-17.72-40.7h-0.32c0.11,1.89,0.21,3.59,0.32,5.1c0.11,1.51,0.2,3.12,0.28,4.81
			c0.08,1.7,0.12,3.28,0.12,4.73v26.06H485.2V0.89h21.77l17.64,40.14h0.24c-0.11-1.83-0.2-3.48-0.28-4.94
			c-0.08-1.46-0.15-2.99-0.2-4.61c-0.05-1.62-0.08-3.1-0.08-4.45V0.89h14.65V58.67z"/>
		<path class="st1" d="M595.34,58.67h-32.78V0.89h32.78v12.54h-16.27v9.06h15.05v12.54h-15.05v10.92h16.27V58.67z"/>
		<path class="st1" d="M691.8,0.89l-13.19,57.78h-19.66l-4.21-24.36c-0.11-0.59-0.3-1.78-0.57-3.56c-0.27-1.78-0.55-3.72-0.85-5.83
			s-0.5-3.97-0.61-5.58c-0.11,1.62-0.32,3.48-0.65,5.58c-0.32,2.1-0.63,4.05-0.93,5.83c-0.3,1.78-0.5,2.97-0.61,3.56l-4.29,24.36
			h-19.75L613.22,0.89H629l5.99,29.78c0.16,0.97,0.39,2.29,0.69,3.97c0.3,1.67,0.57,3.45,0.81,5.34c0.24,1.89,0.45,3.61,0.61,5.18
			c0.27-2.43,0.59-4.77,0.97-7.04c0.38-2.27,0.78-4.58,1.21-6.96l5.83-30.27h15.46l5.42,29.54c0.43,2.32,0.81,4.69,1.13,7.12
			c0.32,2.43,0.7,4.96,1.13,7.61c0.21-1.56,0.5-3.36,0.85-5.38c0.35-2.02,0.7-3.93,1.05-5.71c0.35-1.78,0.61-3.16,0.77-4.13
			l5.5-29.05H691.8z"/>
		<path class="st1" d="M749.25,41.11c0,3.18-0.73,6.16-2.18,8.94c-1.46,2.78-3.79,5.04-7,6.8c-3.21,1.75-7.49,2.63-12.83,2.63
			c-2.8,0-5.17-0.12-7.08-0.36c-1.92-0.24-3.67-0.63-5.26-1.17c-1.59-0.54-3.31-1.24-5.14-2.1V41.92c3.13,1.57,6.26,2.77,9.39,3.6
			c3.13,0.84,5.83,1.25,8.09,1.25c1.78,0,3.13-0.4,4.05-1.21c0.92-0.81,1.38-1.83,1.38-3.07c0-0.97-0.24-1.82-0.73-2.55
			s-1.42-1.47-2.79-2.23c-1.38-0.75-3.33-1.67-5.87-2.75c-3.24-1.35-5.83-2.78-7.77-4.29c-1.94-1.51-3.35-3.34-4.21-5.5
			c-0.86-2.16-1.29-4.88-1.29-8.17c0-3.72,0.93-6.84,2.79-9.35c1.86-2.51,4.41-4.4,7.65-5.66c3.24-1.27,6.96-1.9,11.17-1.9
			c3.99,0,7.48,0.43,10.48,1.29c2.99,0.86,5.44,1.81,7.32,2.83l-4.94,12.06c-2.21-1.13-4.53-2.04-6.96-2.71
			c-2.43-0.67-4.56-1.01-6.39-1.01c-1.73,0-2.95,0.35-3.68,1.05c-0.73,0.7-1.09,1.59-1.09,2.67c0,0.92,0.31,1.73,0.93,2.43
			c0.62,0.7,1.71,1.47,3.28,2.31c1.56,0.84,3.8,1.96,6.72,3.36c2.59,1.19,4.77,2.51,6.55,3.96c1.78,1.46,3.13,3.21,4.05,5.26
			C748.8,35.63,749.25,38.14,749.25,41.11z"/>
	</g>
	<g>
		<path class="st2" d="M30.38,64.45H13.87V19.46H1.49V6.67h41.27v12.79H30.38V64.45z"/>
		<path class="st2" d="M114.78,35.48c0,5.99-0.89,11.21-2.67,15.66c-1.78,4.45-4.64,7.92-8.58,10.4c-3.94,2.48-9.09,3.72-15.46,3.72
			c-6.15,0-11.2-1.24-15.13-3.72c-3.94-2.48-6.85-5.96-8.74-10.44c-1.89-4.48-2.83-9.71-2.83-15.7s0.94-11.19,2.83-15.62
			c1.89-4.42,4.8-7.86,8.74-10.32c3.94-2.45,9.01-3.68,15.21-3.68c6.37,0,11.5,1.23,15.42,3.68c3.91,2.46,6.76,5.91,8.54,10.36
			C113.89,24.27,114.78,29.49,114.78,35.48z M78.69,35.48c0,5.23,0.71,9.33,2.14,12.3c1.43,2.97,3.84,4.45,7.24,4.45
			c3.51,0,5.95-1.48,7.32-4.45c1.38-2.97,2.06-7.07,2.06-12.3c0-5.23-0.68-9.36-2.02-12.38c-1.35-3.02-3.78-4.53-7.28-4.53
			c-3.51,0-5.96,1.51-7.36,4.53C79.39,26.12,78.69,30.25,78.69,35.48z"/>
		<path class="st2" d="M156.38,6.67c6.85,0,12.04,1.59,15.58,4.77c3.53,3.18,5.3,7.72,5.3,13.6c0,3.51-0.63,6.8-1.9,9.87
			s-3.39,5.57-6.35,7.49c-2.97,1.92-6.99,2.87-12.06,2.87h-3.64v19.18h-16.51V6.67H156.38z M156.3,19.29h-2.99v13.27h2.35
			c1.19,0,2.36-0.53,3.52-1.58c1.16-1.05,1.74-2.9,1.74-5.54c0-1.83-0.38-3.32-1.13-4.45S157.86,19.29,156.3,19.29z"/>
		<path class="st2" d="M225.65,64.45h-30.27v-8.9l6.88-2.75V18.24l-6.88-2.67v-8.9h30.27v8.9l-6.8,2.67V52.8l6.8,2.75V64.45z"/>
		<path class="st2" d="M272.18,18.65c-3.45,0-6.07,1.51-7.85,4.53c-1.78,3.02-2.67,7.23-2.67,12.62c0,5.45,1,9.59,2.99,12.42
			c1.99,2.83,4.94,4.25,8.82,4.25c2.37,0,4.62-0.35,6.76-1.05c2.13-0.7,4.19-1.56,6.19-2.59v13.19c-2.38,1.13-4.88,1.96-7.53,2.47
			c-2.64,0.51-5.34,0.77-8.09,0.77c-6.1,0-11.06-1.24-14.89-3.72c-3.83-2.48-6.64-5.95-8.42-10.4c-1.78-4.45-2.67-9.59-2.67-15.42
			s1.04-10.98,3.12-15.46c2.08-4.48,5.1-8,9.06-10.56c3.97-2.56,8.83-3.84,14.61-3.84c2.59,0,5.47,0.35,8.66,1.05
			c3.18,0.7,6.07,1.7,8.66,2.99l-4.94,12.3c-1.83-1.02-3.68-1.87-5.54-2.55C276.59,18.98,274.5,18.65,272.18,18.65z"/>
		<path class="st2" d="M346.79,46.89c0,3.18-0.73,6.16-2.18,8.94c-1.46,2.78-3.79,5.04-7,6.8c-3.21,1.75-7.49,2.63-12.83,2.63
			c-2.8,0-5.17-0.12-7.08-0.36c-1.92-0.24-3.67-0.63-5.26-1.17c-1.59-0.54-3.31-1.24-5.14-2.1V47.7c3.13,1.57,6.26,2.77,9.39,3.6
			c3.13,0.84,5.83,1.25,8.09,1.25c1.78,0,3.13-0.4,4.05-1.21c0.92-0.81,1.38-1.83,1.38-3.07c0-0.97-0.24-1.82-0.73-2.55
			s-1.42-1.47-2.79-2.23c-1.38-0.75-3.33-1.67-5.87-2.75c-3.24-1.35-5.83-2.78-7.77-4.29c-1.94-1.51-3.35-3.34-4.21-5.5
			c-0.86-2.16-1.29-4.88-1.29-8.17c0-3.72,0.93-6.84,2.79-9.35c1.86-2.51,4.41-4.4,7.65-5.66c3.24-1.27,6.96-1.9,11.17-1.9
			c3.99,0,7.48,0.43,10.48,1.29c2.99,0.86,5.44,1.81,7.32,2.83l-4.94,12.06c-2.21-1.13-4.53-2.04-6.96-2.71
			c-2.43-0.67-4.56-1.01-6.39-1.01c-1.73,0-2.95,0.35-3.68,1.05c-0.73,0.7-1.09,1.59-1.09,2.67c0,0.92,0.31,1.73,0.93,2.43
			c0.62,0.7,1.71,1.47,3.28,2.31c1.56,0.84,3.8,1.96,6.72,3.36c2.59,1.19,4.77,2.51,6.55,3.96c1.78,1.46,3.13,3.21,4.05,5.26
			C346.33,41.41,346.79,43.92,346.79,46.89z"/>
		<path class="st2" d="M407.72,11.79c5.56,0,9.83,1.09,12.83,3.28s4.49,5.22,4.49,9.1c0,3.01-0.84,5.62-2.51,7.83
			c-1.67,2.21-3.91,4.14-6.72,5.79l5.58,6.7c0.81-1.26,1.52-2.68,2.14-4.26c0.62-1.58,1.06-3.24,1.33-4.99h16.91
			c-0.81,3.54-2.08,6.94-3.8,10.2c-1.73,3.25-3.4,5.95-5.02,8.08l12.22,10.92h-21.44l-3.32-3.64c-0.97,0.63-1.9,1.21-2.79,1.75
			c-0.89,0.53-1.9,1-3.03,1.38c-1.13,0.39-2.55,0.69-4.25,0.91c-1.7,0.22-3.87,0.33-6.51,0.33c-4.26,0-7.86-0.68-10.8-2.04
			c-2.94-1.36-5.15-3.18-6.64-5.46c-1.48-2.28-2.22-4.83-2.22-7.65c0-6.26,3.4-11.02,10.2-14.28c-1.24-1.65-2.32-3.41-3.24-5.28
			c-0.92-1.87-1.38-3.97-1.38-6.3c0-3.59,1.44-6.55,4.33-8.89S401.52,11.79,407.72,11.79z M403.03,43.4
			c-0.86,0.78-1.45,1.64-1.74,2.59c-0.3,0.95-0.45,1.96-0.45,3.02c0,1.51,0.42,2.73,1.25,3.68c0.84,0.95,2.01,1.42,3.52,1.42
			c1.24,0,2.29-0.18,3.16-0.55c0.86-0.36,1.43-0.76,1.7-1.2L403.03,43.4z M407.4,20.9c-0.92,0-1.66,0.29-2.22,0.87
			c-0.57,0.58-0.85,1.53-0.85,2.84c0,1.07,0.34,2.06,1.01,2.99c0.67,0.92,1.39,1.77,2.14,2.55c0.97-0.78,1.71-1.69,2.23-2.73
			c0.51-1.04,0.77-2.12,0.77-3.24C410.47,21.99,409.45,20.9,407.4,20.9z"/>
		<path class="st2" d="M533.15,64.45H511.3l-17.72-40.7h-0.32c0.11,1.89,0.21,3.59,0.32,5.1c0.11,1.51,0.2,3.12,0.28,4.81
			c0.08,1.7,0.12,3.28,0.12,4.73v26.06h-14.57V6.67h21.77l17.64,40.14h0.24c-0.11-1.83-0.2-3.48-0.28-4.94
			c-0.08-1.46-0.15-2.99-0.2-4.61c-0.05-1.62-0.08-3.1-0.08-4.45V6.67h14.65V64.45z"/>
		<path class="st2" d="M589.56,64.45h-32.78V6.67h32.78v12.54h-16.27v9.06h15.05v12.54h-15.05v10.92h16.27V64.45z"/>
		<path class="st2" d="M686.02,6.67l-13.19,57.78h-19.66l-4.21-24.36c-0.11-0.59-0.3-1.78-0.57-3.56c-0.27-1.78-0.55-3.72-0.85-5.83
			s-0.5-3.97-0.61-5.58c-0.11,1.62-0.32,3.48-0.65,5.58c-0.32,2.1-0.63,4.05-0.93,5.83c-0.3,1.78-0.5,2.97-0.61,3.56l-4.29,24.36
			h-19.75L607.44,6.67h15.78l5.99,29.78c0.16,0.97,0.39,2.29,0.69,3.97c0.3,1.67,0.57,3.45,0.81,5.34c0.24,1.89,0.45,3.61,0.61,5.18
			c0.27-2.43,0.59-4.77,0.97-7.04c0.38-2.27,0.78-4.58,1.21-6.96l5.83-30.27h15.46l5.42,29.54c0.43,2.32,0.81,4.69,1.13,7.12
			c0.32,2.43,0.7,4.96,1.13,7.61c0.21-1.56,0.5-3.36,0.85-5.38c0.35-2.02,0.7-3.93,1.05-5.71c0.35-1.78,0.61-3.16,0.77-4.13
			l5.5-29.05H686.02z"/>
		<path class="st2" d="M743.47,46.89c0,3.18-0.73,6.16-2.18,8.94c-1.46,2.78-3.79,5.04-7,6.8c-3.21,1.75-7.49,2.63-12.83,2.63
			c-2.8,0-5.17-0.12-7.08-0.36c-1.92-0.24-3.67-0.63-5.26-1.17c-1.59-0.54-3.31-1.24-5.14-2.1V47.7c3.13,1.57,6.26,2.77,9.39,3.6
			c3.13,0.84,5.83,1.25,8.09,1.25c1.78,0,3.13-0.4,4.05-1.21c0.92-0.81,1.38-1.83,1.38-3.07c0-0.97-0.24-1.82-0.73-2.55
			s-1.42-1.47-2.79-2.23c-1.38-0.75-3.33-1.67-5.87-2.75c-3.24-1.35-5.83-2.78-7.77-4.29c-1.94-1.51-3.35-3.34-4.21-5.5
			c-0.86-2.16-1.29-4.88-1.29-8.17c0-3.72,0.93-6.84,2.79-9.35c1.86-2.51,4.41-4.4,7.65-5.66c3.24-1.27,6.96-1.9,11.17-1.9
			c3.99,0,7.48,0.43,10.48,1.29c2.99,0.86,5.44,1.81,7.32,2.83l-4.94,12.06c-2.21-1.13-4.53-2.04-6.96-2.71
			c-2.43-0.67-4.56-1.01-6.39-1.01c-1.73,0-2.95,0.35-3.68,1.05c-0.73,0.7-1.09,1.59-1.09,2.67c0,0.92,0.31,1.73,0.93,2.43
			c0.62,0.7,1.71,1.47,3.28,2.31c1.56,0.84,3.8,1.96,6.72,3.36c2.59,1.19,4.77,2.51,6.55,3.96c1.78,1.46,3.13,3.21,4.05,5.26
			C743.02,41.41,743.47,43.92,743.47,46.89z"/>
	</g>
	<g>
		<path class="st2" d="M30.38,64.45H13.87V19.46H1.49V6.67h41.27v12.79H30.38V64.45z"/>
		<path class="st2" d="M114.78,35.48c0,5.99-0.89,11.21-2.67,15.66c-1.78,4.45-4.64,7.92-8.58,10.4c-3.94,2.48-9.09,3.72-15.46,3.72
			c-6.15,0-11.2-1.24-15.13-3.72c-3.94-2.48-6.85-5.96-8.74-10.44c-1.89-4.48-2.83-9.71-2.83-15.7s0.94-11.19,2.83-15.62
			c1.89-4.42,4.8-7.86,8.74-10.32c3.94-2.45,9.01-3.68,15.21-3.68c6.37,0,11.5,1.23,15.42,3.68c3.91,2.46,6.76,5.91,8.54,10.36
			C113.89,24.27,114.78,29.49,114.78,35.48z M78.69,35.48c0,5.23,0.71,9.33,2.14,12.3c1.43,2.97,3.84,4.45,7.24,4.45
			c3.51,0,5.95-1.48,7.32-4.45c1.38-2.97,2.06-7.07,2.06-12.3c0-5.23-0.68-9.36-2.02-12.38c-1.35-3.02-3.78-4.53-7.28-4.53
			c-3.51,0-5.96,1.51-7.36,4.53C79.39,26.12,78.69,30.25,78.69,35.48z"/>
		<path class="st2" d="M156.38,6.67c6.85,0,12.04,1.59,15.58,4.77c3.53,3.18,5.3,7.72,5.3,13.6c0,3.51-0.63,6.8-1.9,9.87
			s-3.39,5.57-6.35,7.49c-2.97,1.92-6.99,2.87-12.06,2.87h-3.64v19.18h-16.51V6.67H156.38z M156.3,19.29h-2.99v13.27h2.35
			c1.19,0,2.36-0.53,3.52-1.58c1.16-1.05,1.74-2.9,1.74-5.54c0-1.83-0.38-3.32-1.13-4.45S157.86,19.29,156.3,19.29z"/>
		<path class="st2" d="M225.65,64.45h-30.27v-8.9l6.88-2.75V18.24l-6.88-2.67v-8.9h30.27v8.9l-6.8,2.67V52.8l6.8,2.75V64.45z"/>
		<path class="st2" d="M272.18,18.65c-3.45,0-6.07,1.51-7.85,4.53c-1.78,3.02-2.67,7.23-2.67,12.62c0,5.45,1,9.59,2.99,12.42
			c1.99,2.83,4.94,4.25,8.82,4.25c2.37,0,4.62-0.35,6.76-1.05c2.13-0.7,4.19-1.56,6.19-2.59v13.19c-2.38,1.13-4.88,1.96-7.53,2.47
			c-2.64,0.51-5.34,0.77-8.09,0.77c-6.1,0-11.06-1.24-14.89-3.72c-3.83-2.48-6.64-5.95-8.42-10.4c-1.78-4.45-2.67-9.59-2.67-15.42
			s1.04-10.98,3.12-15.46c2.08-4.48,5.1-8,9.06-10.56c3.97-2.56,8.83-3.84,14.61-3.84c2.59,0,5.47,0.35,8.66,1.05
			c3.18,0.7,6.07,1.7,8.66,2.99l-4.94,12.3c-1.83-1.02-3.68-1.87-5.54-2.55C276.59,18.98,274.5,18.65,272.18,18.65z"/>
		<path class="st2" d="M346.79,46.89c0,3.18-0.73,6.16-2.18,8.94c-1.46,2.78-3.79,5.04-7,6.8c-3.21,1.75-7.49,2.63-12.83,2.63
			c-2.8,0-5.17-0.12-7.08-0.36c-1.92-0.24-3.67-0.63-5.26-1.17c-1.59-0.54-3.31-1.24-5.14-2.1V47.7c3.13,1.57,6.26,2.77,9.39,3.6
			c3.13,0.84,5.83,1.25,8.09,1.25c1.78,0,3.13-0.4,4.05-1.21c0.92-0.81,1.38-1.83,1.38-3.07c0-0.97-0.24-1.82-0.73-2.55
			s-1.42-1.47-2.79-2.23c-1.38-0.75-3.33-1.67-5.87-2.75c-3.24-1.35-5.83-2.78-7.77-4.29c-1.94-1.51-3.35-3.34-4.21-5.5
			c-0.86-2.16-1.29-4.88-1.29-8.17c0-3.72,0.93-6.84,2.79-9.35c1.86-2.51,4.41-4.4,7.65-5.66c3.24-1.27,6.96-1.9,11.17-1.9
			c3.99,0,7.48,0.43,10.48,1.29c2.99,0.86,5.44,1.81,7.32,2.83l-4.94,12.06c-2.21-1.13-4.53-2.04-6.96-2.71
			c-2.43-0.67-4.56-1.01-6.39-1.01c-1.73,0-2.95,0.35-3.68,1.05c-0.73,0.7-1.09,1.59-1.09,2.67c0,0.92,0.31,1.73,0.93,2.43
			c0.62,0.7,1.71,1.47,3.28,2.31c1.56,0.84,3.8,1.96,6.72,3.36c2.59,1.19,4.77,2.51,6.55,3.96c1.78,1.46,3.13,3.21,4.05,5.26
			C346.33,41.41,346.79,43.92,346.79,46.89z"/>
		<path class="st2" d="M407.72,11.79c5.56,0,9.83,1.09,12.83,3.28s4.49,5.22,4.49,9.1c0,3.01-0.84,5.62-2.51,7.83
			c-1.67,2.21-3.91,4.14-6.72,5.79l5.58,6.7c0.81-1.26,1.52-2.68,2.14-4.26c0.62-1.58,1.06-3.24,1.33-4.99h16.91
			c-0.81,3.54-2.08,6.94-3.8,10.2c-1.73,3.25-3.4,5.95-5.02,8.08l12.22,10.92h-21.44l-3.32-3.64c-0.97,0.63-1.9,1.21-2.79,1.75
			c-0.89,0.53-1.9,1-3.03,1.38c-1.13,0.39-2.55,0.69-4.25,0.91c-1.7,0.22-3.87,0.33-6.51,0.33c-4.26,0-7.86-0.68-10.8-2.04
			c-2.94-1.36-5.15-3.18-6.64-5.46c-1.48-2.28-2.22-4.83-2.22-7.65c0-6.26,3.4-11.02,10.2-14.28c-1.24-1.65-2.32-3.41-3.24-5.28
			c-0.92-1.87-1.38-3.97-1.38-6.3c0-3.59,1.44-6.55,4.33-8.89S401.52,11.79,407.72,11.79z M403.03,43.4
			c-0.86,0.78-1.45,1.64-1.74,2.59c-0.3,0.95-0.45,1.96-0.45,3.02c0,1.51,0.42,2.73,1.25,3.68c0.84,0.95,2.01,1.42,3.52,1.42
			c1.24,0,2.29-0.18,3.16-0.55c0.86-0.36,1.43-0.76,1.7-1.2L403.03,43.4z M407.4,20.9c-0.92,0-1.66,0.29-2.22,0.87
			c-0.57,0.58-0.85,1.53-0.85,2.84c0,1.07,0.34,2.06,1.01,2.99c0.67,0.92,1.39,1.77,2.14,2.55c0.97-0.78,1.71-1.69,2.23-2.73
			c0.51-1.04,0.77-2.12,0.77-3.24C410.47,21.99,409.45,20.9,407.4,20.9z"/>
		<path class="st2" d="M533.15,64.45H511.3l-17.72-40.7h-0.32c0.11,1.89,0.21,3.59,0.32,5.1c0.11,1.51,0.2,3.12,0.28,4.81
			c0.08,1.7,0.12,3.28,0.12,4.73v26.06h-14.57V6.67h21.77l17.64,40.14h0.24c-0.11-1.83-0.2-3.48-0.28-4.94
			c-0.08-1.46-0.15-2.99-0.2-4.61c-0.05-1.62-0.08-3.1-0.08-4.45V6.67h14.65V64.45z"/>
		<path class="st2" d="M589.56,64.45h-32.78V6.67h32.78v12.54h-16.27v9.06h15.05v12.54h-15.05v10.92h16.27V64.45z"/>
		<path class="st2" d="M686.02,6.67l-13.19,57.78h-19.66l-4.21-24.36c-0.11-0.59-0.3-1.78-0.57-3.56c-0.27-1.78-0.55-3.72-0.85-5.83
			s-0.5-3.97-0.61-5.58c-0.11,1.62-0.32,3.48-0.65,5.58c-0.32,2.1-0.63,4.05-0.93,5.83c-0.3,1.78-0.5,2.97-0.61,3.56l-4.29,24.36
			h-19.75L607.44,6.67h15.78l5.99,29.78c0.16,0.97,0.39,2.29,0.69,3.97c0.3,1.67,0.57,3.45,0.81,5.34c0.24,1.89,0.45,3.61,0.61,5.18
			c0.27-2.43,0.59-4.77,0.97-7.04c0.38-2.27,0.78-4.58,1.21-6.96l5.83-30.27h15.46l5.42,29.54c0.43,2.32,0.81,4.69,1.13,7.12
			c0.32,2.43,0.7,4.96,1.13,7.61c0.21-1.56,0.5-3.36,0.85-5.38c0.35-2.02,0.7-3.93,1.05-5.71c0.35-1.78,0.61-3.16,0.77-4.13
			l5.5-29.05H686.02z"/>
		<path class="st2" d="M743.47,46.89c0,3.18-0.73,6.16-2.18,8.94c-1.46,2.78-3.79,5.04-7,6.8c-3.21,1.75-7.49,2.63-12.83,2.63
			c-2.8,0-5.17-0.12-7.08-0.36c-1.92-0.24-3.67-0.63-5.26-1.17c-1.59-0.54-3.31-1.24-5.14-2.1V47.7c3.13,1.57,6.26,2.77,9.39,3.6
			c3.13,0.84,5.83,1.25,8.09,1.25c1.78,0,3.13-0.4,4.05-1.21c0.92-0.81,1.38-1.83,1.38-3.07c0-0.97-0.24-1.82-0.73-2.55
			s-1.42-1.47-2.79-2.23c-1.38-0.75-3.33-1.67-5.87-2.75c-3.24-1.35-5.83-2.78-7.77-4.29c-1.94-1.51-3.35-3.34-4.21-5.5
			c-0.86-2.16-1.29-4.88-1.29-8.17c0-3.72,0.93-6.84,2.79-9.35c1.86-2.51,4.41-4.4,7.65-5.66c3.24-1.27,6.96-1.9,11.17-1.9
			c3.99,0,7.48,0.43,10.48,1.29c2.99,0.86,5.44,1.81,7.32,2.83l-4.94,12.06c-2.21-1.13-4.53-2.04-6.96-2.71
			c-2.43-0.67-4.56-1.01-6.39-1.01c-1.73,0-2.95,0.35-3.68,1.05c-0.73,0.7-1.09,1.59-1.09,2.67c0,0.92,0.31,1.73,0.93,2.43
			c0.62,0.7,1.71,1.47,3.28,2.31c1.56,0.84,3.8,1.96,6.72,3.36c2.59,1.19,4.77,2.51,6.55,3.96c1.78,1.46,3.13,3.21,4.05,5.26
			C743.02,41.41,743.47,43.92,743.47,46.89z"/>
	</g>
</g>
</svg>
