<?xml version="1.0" encoding="utf-8"?>
<!-- Generator: Adobe Illustrator 23.1.1, SVG Export Plug-In . SVG Version: 6.00 Build 0)  -->
<svg version="1.1" id="レイヤー_1" xmlns="http://www.w3.org/2000/svg" xmlns:xlink="http://www.w3.org/1999/xlink" x="0px"
	 y="0px" viewBox="0 0 250.12 66.75" style="enable-background:new 0 0 250.12 66.75;" xml:space="preserve">
<style type="text/css">
	.st0{opacity:0.4;}
	.st1{fill:#FFFFFF;}
	.st2{fill:none;stroke:#FFFFFF;stroke-width:2.9773;stroke-linecap:round;stroke-linejoin:round;}
</style>
<g>
	<g class="st0">
		<path class="st1" d="M7.27,0.89h20.07c5.45,0,9.76,0.55,12.95,1.66c3.18,1.11,5.45,2.72,6.8,4.86c1.35,2.13,2.02,4.76,2.02,7.89
			c0,2.54-0.49,4.68-1.46,6.43c-0.97,1.75-2.12,3.14-3.44,4.17c-1.32,1.03-2.55,1.73-3.68,2.1v0.41c1.24,0.43,2.6,1.09,4.09,1.98
			c1.48,0.89,2.75,2.24,3.8,4.05c1.05,1.81,1.58,4.25,1.58,7.32c0,5.23-1.89,9.36-5.66,12.38c-3.78,3.02-8.93,4.53-15.46,4.53H7.27
			V0.89z M23.78,23.06h3.08c1.94,0,3.32-0.54,4.13-1.62c0.81-1.08,1.21-2.37,1.21-3.88c0-3.24-1.81-4.86-5.42-4.86h-2.99V23.06z
			 M23.78,34.47v12.14h3.8c2,0,3.41-0.58,4.25-1.74c0.84-1.16,1.25-2.63,1.25-4.41c0-1.56-0.4-2.95-1.21-4.17s-2.32-1.82-4.53-1.82
			H23.78z"/>
		<path class="st1" d="M71.6,58.67V0.89h16.51v45.16h20.23v12.62H71.6z"/>
		<path class="st1" d="M181.17,29.7c0,5.99-0.89,11.21-2.67,15.66c-1.78,4.45-4.64,7.92-8.58,10.4c-3.94,2.48-9.09,3.72-15.46,3.72
			c-6.15,0-11.2-1.24-15.13-3.72c-3.94-2.48-6.85-5.96-8.74-10.44c-1.89-4.48-2.83-9.71-2.83-15.7s0.94-11.19,2.83-15.62
			c1.89-4.42,4.8-7.86,8.74-10.32C143.27,1.23,148.35,0,154.55,0c6.36,0,11.5,1.23,15.42,3.68c3.91,2.46,6.76,5.91,8.54,10.36
			S181.17,23.71,181.17,29.7z M145.08,29.7c0,5.23,0.71,9.33,2.14,12.3c1.43,2.97,3.84,4.45,7.24,4.45c3.51,0,5.95-1.48,7.32-4.45
			c1.38-2.97,2.06-7.07,2.06-12.3c0-5.23-0.68-9.36-2.02-12.38c-1.35-3.02-3.78-4.53-7.28-4.53c-3.51,0-5.96,1.51-7.36,4.53
			C145.78,20.34,145.08,24.47,145.08,29.7z"/>
		<path class="st1" d="M225.68,24.84h24.44V56c-2.81,1.03-6.16,1.86-10.08,2.51c-3.91,0.65-7.86,0.97-11.85,0.97
			c-5.13,0-9.71-1.08-13.76-3.24c-4.05-2.16-7.23-5.45-9.55-9.87c-2.32-4.42-3.48-10.01-3.48-16.75c0-6.04,1.08-11.28,3.24-15.7
			c2.16-4.42,5.37-7.84,9.63-10.24c4.26-2.4,9.52-3.6,15.78-3.6c3.67,0,7.09,0.35,10.28,1.05c3.18,0.7,5.88,1.57,8.09,2.59
			l-5.1,12.22c-2.1-1.02-4.21-1.79-6.31-2.31s-4.37-0.77-6.8-0.77c-3.24,0-5.71,0.78-7.4,2.35c-1.7,1.57-2.86,3.64-3.48,6.23
			c-0.62,2.59-0.93,5.45-0.93,8.58c0,5.4,1.04,9.51,3.12,12.34c2.08,2.83,4.79,4.25,8.13,4.25c0.27,0,0.78-0.03,1.54-0.08
			c0.75-0.05,1.5-0.13,2.23-0.24c0.73-0.11,1.25-0.21,1.58-0.32V36.9h-9.31V24.84z"/>
	</g>
	<g>
		<path class="st2" d="M1.49,6.67h20.07c5.45,0,9.76,0.55,12.95,1.66c3.18,1.11,5.45,2.72,6.8,4.86c1.35,2.13,2.02,4.76,2.02,7.89
			c0,2.54-0.49,4.68-1.46,6.43c-0.97,1.75-2.12,3.14-3.44,4.17c-1.32,1.03-2.55,1.73-3.68,2.1v0.41c1.24,0.43,2.6,1.09,4.09,1.98
			c1.48,0.89,2.75,2.24,3.8,4.05c1.05,1.81,1.58,4.25,1.58,7.32c0,5.23-1.89,9.36-5.66,12.38c-3.78,3.02-8.93,4.53-15.46,4.53H1.49
			V6.67z M18,28.84h3.08c1.94,0,3.32-0.54,4.13-1.62c0.81-1.08,1.21-2.37,1.21-3.88c0-3.24-1.81-4.86-5.42-4.86H18V28.84z M18,40.25
			v12.14h3.8c2,0,3.41-0.58,4.25-1.74c0.84-1.16,1.25-2.63,1.25-4.41c0-1.56-0.4-2.95-1.21-4.17s-2.32-1.82-4.53-1.82H18z"/>
		<path class="st2" d="M65.82,64.45V6.67h16.51v45.16h20.23v12.62H65.82z"/>
		<path class="st2" d="M175.39,35.48c0,5.99-0.89,11.21-2.67,15.66c-1.78,4.45-4.64,7.92-8.58,10.4c-3.94,2.48-9.09,3.72-15.46,3.72
			c-6.15,0-11.2-1.24-15.13-3.72c-3.94-2.48-6.85-5.96-8.74-10.44c-1.89-4.48-2.83-9.71-2.83-15.7s0.94-11.19,2.83-15.62
			c1.89-4.42,4.8-7.86,8.74-10.32c3.94-2.45,9.01-3.68,15.21-3.68c6.36,0,11.5,1.23,15.42,3.68c3.91,2.46,6.76,5.91,8.54,10.36
			S175.39,29.49,175.39,35.48z M139.3,35.48c0,5.23,0.71,9.33,2.14,12.3c1.43,2.97,3.84,4.45,7.24,4.45c3.51,0,5.95-1.48,7.32-4.45
			c1.38-2.97,2.06-7.07,2.06-12.3c0-5.23-0.68-9.36-2.02-12.38c-1.35-3.02-3.78-4.53-7.28-4.53c-3.51,0-5.96,1.51-7.36,4.53
			C140,26.12,139.3,30.25,139.3,35.48z"/>
		<path class="st2" d="M219.9,30.62h24.44v31.16c-2.81,1.03-6.16,1.86-10.08,2.51c-3.91,0.65-7.86,0.97-11.85,0.97
			c-5.13,0-9.71-1.08-13.76-3.24c-4.05-2.16-7.23-5.45-9.55-9.87c-2.32-4.42-3.48-10.01-3.48-16.75c0-6.04,1.08-11.28,3.24-15.7
			c2.16-4.42,5.37-7.84,9.63-10.24c4.26-2.4,9.52-3.6,15.78-3.6c3.67,0,7.09,0.35,10.28,1.05c3.18,0.7,5.88,1.57,8.09,2.59
			l-5.1,12.22c-2.1-1.02-4.21-1.79-6.31-2.31s-4.37-0.77-6.8-0.77c-3.24,0-5.71,0.78-7.4,2.35c-1.7,1.57-2.86,3.64-3.48,6.23
			c-0.62,2.59-0.93,5.45-0.93,8.58c0,5.4,1.04,9.51,3.12,12.34c2.08,2.83,4.79,4.25,8.13,4.25c0.27,0,0.78-0.03,1.54-0.08
			c0.75-0.05,1.5-0.13,2.23-0.24c0.73-0.11,1.25-0.21,1.58-0.32v-9.06h-9.31V30.62z"/>
	</g>
	<g>
		<path class="st2" d="M1.49,6.67h20.07c5.45,0,9.76,0.55,12.95,1.66c3.18,1.11,5.45,2.72,6.8,4.86c1.35,2.13,2.02,4.76,2.02,7.89
			c0,2.54-0.49,4.68-1.46,6.43c-0.97,1.75-2.12,3.14-3.44,4.17c-1.32,1.03-2.55,1.73-3.68,2.1v0.41c1.24,0.43,2.6,1.09,4.09,1.98
			c1.48,0.89,2.75,2.24,3.8,4.05c1.05,1.81,1.58,4.25,1.58,7.32c0,5.23-1.89,9.36-5.66,12.38c-3.78,3.02-8.93,4.53-15.46,4.53H1.49
			V6.67z M18,28.84h3.08c1.94,0,3.32-0.54,4.13-1.62c0.81-1.08,1.21-2.37,1.21-3.88c0-3.24-1.81-4.86-5.42-4.86H18V28.84z M18,40.25
			v12.14h3.8c2,0,3.41-0.58,4.25-1.74c0.84-1.16,1.25-2.63,1.25-4.41c0-1.56-0.4-2.95-1.21-4.17s-2.32-1.82-4.53-1.82H18z"/>
		<path class="st2" d="M65.82,64.45V6.67h16.51v45.16h20.23v12.62H65.82z"/>
		<path class="st2" d="M175.39,35.48c0,5.99-0.89,11.21-2.67,15.66c-1.78,4.45-4.64,7.92-8.58,10.4c-3.94,2.48-9.09,3.72-15.46,3.72
			c-6.15,0-11.2-1.24-15.13-3.72c-3.94-2.48-6.85-5.96-8.74-10.44c-1.89-4.48-2.83-9.71-2.83-15.7s0.94-11.19,2.83-15.62
			c1.89-4.42,4.8-7.86,8.74-10.32c3.94-2.45,9.01-3.68,15.21-3.68c6.36,0,11.5,1.23,15.42,3.68c3.91,2.46,6.76,5.91,8.54,10.36
			S175.39,29.49,175.39,35.48z M139.3,35.48c0,5.23,0.71,9.33,2.14,12.3c1.43,2.97,3.84,4.45,7.24,4.45c3.51,0,5.95-1.48,7.32-4.45
			c1.38-2.97,2.06-7.07,2.06-12.3c0-5.23-0.68-9.36-2.02-12.38c-1.35-3.02-3.78-4.53-7.28-4.53c-3.51,0-5.96,1.51-7.36,4.53
			C140,26.12,139.3,30.25,139.3,35.48z"/>
		<path class="st2" d="M219.9,30.62h24.44v31.16c-2.81,1.03-6.16,1.86-10.08,2.51c-3.91,0.65-7.86,0.97-11.85,0.97
			c-5.13,0-9.71-1.08-13.76-3.24c-4.05-2.16-7.23-5.45-9.55-9.87c-2.32-4.42-3.48-10.01-3.48-16.75c0-6.04,1.08-11.28,3.24-15.7
			c2.16-4.42,5.37-7.84,9.63-10.24c4.26-2.4,9.52-3.6,15.78-3.6c3.67,0,7.09,0.35,10.28,1.05c3.18,0.7,5.88,1.57,8.09,2.59
			l-5.1,12.22c-2.1-1.02-4.21-1.79-6.31-2.31s-4.37-0.77-6.8-0.77c-3.24,0-5.71,0.78-7.4,2.35c-1.7,1.57-2.86,3.64-3.48,6.23
			c-0.62,2.59-0.93,5.45-0.93,8.58c0,5.4,1.04,9.51,3.12,12.34c2.08,2.83,4.79,4.25,8.13,4.25c0.27,0,0.78-0.03,1.54-0.08
			c0.75-0.05,1.5-0.13,2.23-0.24c0.73-0.11,1.25-0.21,1.58-0.32v-9.06h-9.31V30.62z"/>
	</g>
</g>
</svg>
