<?xml version="1.0" encoding="utf-8"?>
<!-- Generator: Adobe Illustrator 23.1.1, SVG Export Plug-In . SVG Version: 6.00 Build 0)  -->
<svg version="1.1" id="レイヤー_1" xmlns="http://www.w3.org/2000/svg" xmlns:xlink="http://www.w3.org/1999/xlink" x="0px"
	 y="0px" viewBox="0 0 451.78 66.75" style="enable-background:new 0 0 451.78 66.75;" xml:space="preserve">
<style type="text/css">
	.st0{opacity:0.4;}
	.st1{fill:#FFFFFF;}
	.st2{fill:none;stroke:#FFFFFF;stroke-width:2.9773;stroke-linecap:round;stroke-linejoin:round;}
</style>
<g>
	<g class="st0">
		<path class="st1" d="M34.62,12.87c-3.45,0-6.07,1.51-7.85,4.53c-1.78,3.02-2.67,7.23-2.67,12.62c0,5.45,1,9.59,2.99,12.42
			c2,2.83,4.94,4.25,8.82,4.25c2.37,0,4.62-0.35,6.76-1.05c2.13-0.7,4.19-1.56,6.19-2.59v13.19c-2.38,1.13-4.88,1.96-7.53,2.47
			c-2.64,0.51-5.34,0.77-8.09,0.77c-6.1,0-11.06-1.24-14.89-3.72c-3.83-2.48-6.64-5.95-8.42-10.4c-1.78-4.45-2.67-9.59-2.67-15.42
			c0-5.83,1.04-10.98,3.12-15.46c2.08-4.48,5.1-8,9.06-10.56c3.97-2.56,8.83-3.84,14.61-3.84c2.59,0,5.47,0.35,8.66,1.05
			c3.18,0.7,6.07,1.7,8.66,2.99l-4.94,12.3c-1.83-1.02-3.68-1.87-5.54-2.55C39.03,13.2,36.94,12.87,34.62,12.87z"/>
		<path class="st1" d="M123.48,29.7c0,5.99-0.89,11.21-2.67,15.66c-1.78,4.45-4.64,7.92-8.58,10.4c-3.94,2.48-9.09,3.72-15.46,3.72
			c-6.15,0-11.2-1.24-15.13-3.72c-3.94-2.48-6.85-5.96-8.74-10.44c-1.89-4.48-2.83-9.71-2.83-15.7S71.01,18.42,72.9,14
			c1.89-4.42,4.8-7.86,8.74-10.32C85.58,1.23,90.65,0,96.85,0c6.37,0,11.5,1.23,15.42,3.68c3.91,2.46,6.76,5.91,8.54,10.36
			C122.59,18.49,123.48,23.71,123.48,29.7z M87.38,29.7c0,5.23,0.71,9.33,2.14,12.3c1.43,2.97,3.84,4.45,7.24,4.45
			c3.51,0,5.95-1.48,7.32-4.45c1.38-2.97,2.06-7.07,2.06-12.3c0-5.23-0.68-9.36-2.02-12.38c-1.35-3.02-3.78-4.53-7.28-4.53
			c-3.51,0-5.96,1.51-7.36,4.53C88.08,20.34,87.38,24.47,87.38,29.7z"/>
		<path class="st1" d="M199.22,58.67h-21.85l-17.72-40.71h-0.32c0.11,1.89,0.21,3.59,0.32,5.1c0.11,1.51,0.2,3.12,0.28,4.81
			c0.08,1.7,0.12,3.28,0.12,4.73v26.06h-14.57V0.89h21.77l17.64,40.14h0.24c-0.11-1.83-0.2-3.48-0.28-4.94
			c-0.08-1.46-0.15-2.99-0.2-4.61c-0.05-1.62-0.08-3.1-0.08-4.45V0.89h14.65V58.67z"/>
		<path class="st1" d="M248.5,58.67h-16.51V13.68h-12.38V0.89h41.27v12.79H248.5V58.67z"/>
		<path class="st1" d="M314.62,58.67l-1.94-10.84h-16.43l-2.1,10.84h-18.21l16.91-58.02h22.66l17.16,58.02H314.62z M309.52,35.04
			l-2.27-9.63c-0.43-1.89-0.94-4.17-1.54-6.84c-0.59-2.67-1.05-5.19-1.38-7.57c-0.32,2.37-0.76,4.87-1.29,7.49
			c-0.54,2.62-1.03,4.9-1.46,6.84l-2.27,9.71H309.52z"/>
		<path class="st1" d="M376.52,12.87c-3.45,0-6.07,1.51-7.85,4.53c-1.78,3.02-2.67,7.23-2.67,12.62c0,5.45,1,9.59,2.99,12.42
			c2,2.83,4.94,4.25,8.82,4.25c2.37,0,4.63-0.35,6.76-1.05c2.13-0.7,4.2-1.56,6.19-2.59v13.19c-2.38,1.13-4.88,1.96-7.53,2.47
			c-2.64,0.51-5.34,0.77-8.09,0.77c-6.1,0-11.06-1.24-14.89-3.72c-3.83-2.48-6.64-5.95-8.42-10.4c-1.78-4.45-2.67-9.59-2.67-15.42
			c0-5.83,1.04-10.98,3.12-15.46c2.08-4.48,5.1-8,9.06-10.56c3.96-2.56,8.83-3.84,14.61-3.84c2.59,0,5.47,0.35,8.66,1.05
			c3.18,0.7,6.07,1.7,8.66,2.99l-4.94,12.3c-1.83-1.02-3.68-1.87-5.54-2.55C380.93,13.2,378.84,12.87,376.52,12.87z"/>
		<path class="st1" d="M439.4,58.67h-16.51V13.68h-12.38V0.89h41.27v12.79H439.4V58.67z"/>
	</g>
	<g>
		<path class="st2" d="M28.84,18.65c-3.45,0-6.07,1.51-7.85,4.53c-1.78,3.02-2.67,7.23-2.67,12.62c0,5.45,1,9.59,2.99,12.42
			c2,2.83,4.94,4.25,8.82,4.25c2.37,0,4.62-0.35,6.76-1.05c2.13-0.7,4.19-1.56,6.19-2.59v13.19c-2.38,1.13-4.88,1.96-7.53,2.47
			c-2.64,0.51-5.34,0.77-8.09,0.77c-6.1,0-11.06-1.24-14.89-3.72c-3.83-2.48-6.64-5.95-8.42-10.4c-1.78-4.45-2.67-9.59-2.67-15.42
			c0-5.83,1.04-10.98,3.12-15.46c2.08-4.48,5.1-8,9.06-10.56c3.97-2.56,8.83-3.84,14.61-3.84c2.59,0,5.47,0.35,8.66,1.05
			c3.18,0.7,6.07,1.7,8.66,2.99l-4.94,12.3c-1.83-1.02-3.68-1.87-5.54-2.55C33.25,18.98,31.16,18.65,28.84,18.65z"/>
		<path class="st2" d="M117.7,35.48c0,5.99-0.89,11.21-2.67,15.66c-1.78,4.45-4.64,7.92-8.58,10.4c-3.94,2.48-9.09,3.72-15.46,3.72
			c-6.15,0-11.2-1.24-15.13-3.72c-3.94-2.48-6.85-5.96-8.74-10.44c-1.89-4.48-2.83-9.71-2.83-15.7s0.94-11.19,2.83-15.62
			c1.89-4.42,4.8-7.86,8.74-10.32c3.94-2.45,9.01-3.68,15.21-3.68c6.37,0,11.5,1.23,15.42,3.68c3.91,2.46,6.76,5.91,8.54,10.36
			C116.81,24.27,117.7,29.49,117.7,35.48z M81.6,35.48c0,5.23,0.71,9.33,2.14,12.3c1.43,2.97,3.84,4.45,7.24,4.45
			c3.51,0,5.95-1.48,7.32-4.45c1.38-2.97,2.06-7.07,2.06-12.3c0-5.23-0.68-9.36-2.02-12.38c-1.35-3.02-3.78-4.53-7.28-4.53
			c-3.51,0-5.96,1.51-7.36,4.53C82.3,26.12,81.6,30.25,81.6,35.48z"/>
		<path class="st2" d="M193.44,64.45h-21.85l-17.72-40.71h-0.32c0.11,1.89,0.21,3.59,0.32,5.1c0.11,1.51,0.2,3.12,0.28,4.81
			c0.08,1.7,0.12,3.28,0.12,4.73v26.06h-14.57V6.67h21.77l17.64,40.14h0.24c-0.11-1.83-0.2-3.48-0.28-4.94
			c-0.08-1.46-0.15-2.99-0.2-4.61c-0.05-1.62-0.08-3.1-0.08-4.45V6.67h14.65V64.45z"/>
		<path class="st2" d="M242.72,64.45h-16.51V19.46h-12.38V6.67h41.27v12.79h-12.38V64.45z"/>
		<path class="st2" d="M308.84,64.45l-1.94-10.84h-16.43l-2.1,10.84h-18.21l16.91-58.02h22.66l17.16,58.02H308.84z M303.74,40.82
			l-2.27-9.63c-0.43-1.89-0.94-4.17-1.54-6.84c-0.59-2.67-1.05-5.19-1.38-7.57c-0.32,2.37-0.76,4.87-1.29,7.49
			c-0.54,2.62-1.03,4.9-1.46,6.84l-2.27,9.71H303.74z"/>
		<path class="st2" d="M370.74,18.65c-3.45,0-6.07,1.51-7.85,4.53c-1.78,3.02-2.67,7.23-2.67,12.62c0,5.45,1,9.59,2.99,12.42
			c2,2.83,4.94,4.25,8.82,4.25c2.37,0,4.63-0.35,6.76-1.05c2.13-0.7,4.2-1.56,6.19-2.59v13.19c-2.38,1.13-4.88,1.96-7.53,2.47
			c-2.64,0.51-5.34,0.77-8.09,0.77c-6.1,0-11.06-1.24-14.89-3.72c-3.83-2.48-6.64-5.95-8.42-10.4c-1.78-4.45-2.67-9.59-2.67-15.42
			c0-5.83,1.04-10.98,3.12-15.46c2.08-4.48,5.1-8,9.06-10.56c3.96-2.56,8.83-3.84,14.61-3.84c2.59,0,5.47,0.35,8.66,1.05
			c3.18,0.7,6.07,1.7,8.66,2.99l-4.94,12.3c-1.83-1.02-3.68-1.87-5.54-2.55C375.15,18.98,373.06,18.65,370.74,18.65z"/>
		<path class="st2" d="M433.62,64.45h-16.51V19.46h-12.38V6.67H446v12.79h-12.38V64.45z"/>
	</g>
	<g>
		<path class="st2" d="M28.84,18.65c-3.45,0-6.07,1.51-7.85,4.53c-1.78,3.02-2.67,7.23-2.67,12.62c0,5.45,1,9.59,2.99,12.42
			c2,2.83,4.94,4.25,8.82,4.25c2.37,0,4.62-0.35,6.76-1.05c2.13-0.7,4.19-1.56,6.19-2.59v13.19c-2.38,1.13-4.88,1.96-7.53,2.47
			c-2.64,0.51-5.34,0.77-8.09,0.77c-6.1,0-11.06-1.24-14.89-3.72c-3.83-2.48-6.64-5.95-8.42-10.4c-1.78-4.45-2.67-9.59-2.67-15.42
			c0-5.83,1.04-10.98,3.12-15.46c2.08-4.48,5.1-8,9.06-10.56c3.97-2.56,8.83-3.84,14.61-3.84c2.59,0,5.47,0.35,8.66,1.05
			c3.18,0.7,6.07,1.7,8.66,2.99l-4.94,12.3c-1.83-1.02-3.68-1.87-5.54-2.55C33.25,18.98,31.16,18.65,28.84,18.65z"/>
		<path class="st2" d="M117.7,35.48c0,5.99-0.89,11.21-2.67,15.66c-1.78,4.45-4.64,7.92-8.58,10.4c-3.94,2.48-9.09,3.72-15.46,3.72
			c-6.15,0-11.2-1.24-15.13-3.72c-3.94-2.48-6.85-5.96-8.74-10.44c-1.89-4.48-2.83-9.71-2.83-15.7s0.94-11.19,2.83-15.62
			c1.89-4.42,4.8-7.86,8.74-10.32c3.94-2.45,9.01-3.68,15.21-3.68c6.37,0,11.5,1.23,15.42,3.68c3.91,2.46,6.76,5.91,8.54,10.36
			C116.81,24.27,117.7,29.49,117.7,35.48z M81.6,35.48c0,5.23,0.71,9.33,2.14,12.3c1.43,2.97,3.84,4.45,7.24,4.45
			c3.51,0,5.95-1.48,7.32-4.45c1.38-2.97,2.06-7.07,2.06-12.3c0-5.23-0.68-9.36-2.02-12.38c-1.35-3.02-3.78-4.53-7.28-4.53
			c-3.51,0-5.96,1.51-7.36,4.53C82.3,26.12,81.6,30.25,81.6,35.48z"/>
		<path class="st2" d="M193.44,64.45h-21.85l-17.72-40.71h-0.32c0.11,1.89,0.21,3.59,0.32,5.1c0.11,1.51,0.2,3.12,0.28,4.81
			c0.08,1.7,0.12,3.28,0.12,4.73v26.06h-14.57V6.67h21.77l17.64,40.14h0.24c-0.11-1.83-0.2-3.48-0.28-4.94
			c-0.08-1.46-0.15-2.99-0.2-4.61c-0.05-1.62-0.08-3.1-0.08-4.45V6.67h14.65V64.45z"/>
		<path class="st2" d="M242.72,64.45h-16.51V19.46h-12.38V6.67h41.27v12.79h-12.38V64.45z"/>
		<path class="st2" d="M308.84,64.45l-1.94-10.84h-16.43l-2.1,10.84h-18.21l16.91-58.02h22.66l17.16,58.02H308.84z M303.74,40.82
			l-2.27-9.63c-0.43-1.89-0.94-4.17-1.54-6.84c-0.59-2.67-1.05-5.19-1.38-7.57c-0.32,2.37-0.76,4.87-1.29,7.49
			c-0.54,2.62-1.03,4.9-1.46,6.84l-2.27,9.71H303.74z"/>
		<path class="st2" d="M370.74,18.65c-3.45,0-6.07,1.51-7.85,4.53c-1.78,3.02-2.67,7.23-2.67,12.62c0,5.45,1,9.59,2.99,12.42
			c2,2.83,4.94,4.25,8.82,4.25c2.37,0,4.63-0.35,6.76-1.05c2.13-0.7,4.2-1.56,6.19-2.59v13.19c-2.38,1.13-4.88,1.96-7.53,2.47
			c-2.64,0.51-5.34,0.77-8.09,0.77c-6.1,0-11.06-1.24-14.89-3.72c-3.83-2.48-6.64-5.95-8.42-10.4c-1.78-4.45-2.67-9.59-2.67-15.42
			c0-5.83,1.04-10.98,3.12-15.46c2.08-4.48,5.1-8,9.06-10.56c3.96-2.56,8.83-3.84,14.61-3.84c2.59,0,5.47,0.35,8.66,1.05
			c3.18,0.7,6.07,1.7,8.66,2.99l-4.94,12.3c-1.83-1.02-3.68-1.87-5.54-2.55C375.15,18.98,373.06,18.65,370.74,18.65z"/>
		<path class="st2" d="M433.62,64.45h-16.51V19.46h-12.38V6.67H446v12.79h-12.38V64.45z"/>
	</g>
</g>
</svg>
